<?xml version="1.0" encoding="utf-8"?>
<!-- Generator: Adobe Illustrator 28.2.0, SVG Export Plug-In . SVG Version: 6.00 Build 0)  -->
<svg version="1.1" id="Layer_1" xmlns="http://www.w3.org/2000/svg" xmlns:xlink="http://www.w3.org/1999/xlink" x="0px" y="0px"
	 viewBox="0 0 3800 1576" style="enable-background:new 0 0 3800 1576;" xml:space="preserve">
<style type="text/css">
	.st0{fill-rule:evenodd;clip-rule:evenodd;fill:#F8D7CD;}
	.st1{fill-rule:evenodd;clip-rule:evenodd;fill:#ED7D31;stroke:#FFFFFF;stroke-width:4.5833;stroke-miterlimit:8;}
	.st2{enable-background:new    ;}
	.st3{fill:#FFFFFF;}
	.st4{fill-rule:evenodd;clip-rule:evenodd;fill:#C48170;stroke:#FFFFFF;stroke-width:4.5833;stroke-miterlimit:8;}
	.st5{fill-rule:evenodd;clip-rule:evenodd;fill:#A5A5A5;stroke:#FFFFFF;stroke-width:4.5833;stroke-miterlimit:8;}
</style>
<g transform="translate(-435 -449)">
	<g>
		<path class="st0" d="M723,844.8h2440.5V452l785.5,785.5L3163.5,2023v-392.8H723V844.8z"/>
		<path class="st1" d="M442.5,1028.3c0-57.9,46.9-104.8,104.8-104.8h1012.3c57.9,0,104.8,46.9,104.8,104.8v419.3
			c0,57.9-46.9,104.8-104.8,104.8H547.3c-57.9,0-104.8-46.9-104.8-104.8V1028.3z"/>
		<g class="st2">
			<path class="st3" d="M488.4,1201l36.6-95.2h13.6l39,95.2h-14.4l-11.1-28.8h-39.8l-10.5,28.8H488.4z M515.9,1161.9h32.3l-9.9-26.4
				c-3-8-5.3-14.6-6.8-19.7c-1.2,6.1-2.9,12.2-5.1,18.2L515.9,1161.9z"/>
			<path class="st3" d="M586.1,1201v-69h10.5v9.8c5.1-7.6,12.4-11.4,22-11.4c4.2,0,8,0.7,11.5,2.2c3.5,1.5,6.1,3.5,7.8,5.9
				c1.7,2.4,2.9,5.3,3.6,8.6c0.4,2.2,0.6,6,0.6,11.4v42.4h-11.7v-42c0-4.8-0.5-8.3-1.4-10.7c-0.9-2.4-2.5-4.2-4.8-5.7
				c-2.3-1.4-5-2.1-8.1-2.1c-5,0-9.3,1.6-12.9,4.7c-3.6,3.2-5.4,9.2-5.4,18v37.7H586.1z M594.4,1121.8c0-4.5,1.2-8.1,3.7-10.8
				c2.5-2.7,5.6-4,9.5-4c2.7,0,6.3,1.2,11,3.5c2.6,1.3,4.6,1.9,6.1,1.9c1.4,0,2.4-0.4,3.2-1.1c0.7-0.8,1.3-2.3,1.6-4.5h8.4
				c-0.1,4.9-1.4,8.6-3.7,11.1c-2.4,2.5-5.4,3.7-9,3.7c-2.7,0-6.3-1.2-10.8-3.6c-2.9-1.6-5-2.3-6.4-2.3c-1.5,0-2.7,0.5-3.6,1.6
				c-1,1-1.4,2.6-1.4,4.6H594.4z"/>
			<path class="st3" d="M705.1,1192.5c-4.3,3.7-8.5,6.3-12.5,7.8c-4,1.5-8.3,2.3-12.9,2.3c-7.6,0-13.4-1.9-17.5-5.6
				c-4.1-3.7-6.1-8.4-6.1-14.2c0-3.4,0.8-6.5,2.3-9.3c1.5-2.8,3.5-5,6-6.7c2.5-1.7,5.3-3,8.4-3.8c2.3-0.6,5.8-1.2,10.4-1.8
				c9.4-1.1,16.4-2.5,20.8-4c0-1.6,0.1-2.6,0.1-3.1c0-4.8-1.1-8.1-3.3-10.1c-3-2.6-7.4-4-13.3-4c-5.5,0-9.6,1-12.2,2.9
				c-2.6,1.9-4.6,5.3-5.8,10.2l-11.4-1.6c1-4.9,2.7-8.8,5.1-11.9c2.4-3,5.8-5.3,10.3-6.9c4.5-1.6,9.7-2.4,15.7-2.4
				c5.9,0,10.7,0.7,14.4,2.1c3.7,1.4,6.4,3.1,8.1,5.2c1.7,2.1,2.9,4.8,3.6,8c0.4,2,0.6,5.6,0.6,10.8v15.6c0,10.9,0.2,17.7,0.7,20.6
				c0.5,2.9,1.5,5.6,3,8.3h-12.2C706.2,1198.6,705.4,1195.7,705.1,1192.5z M704.1,1166.4c-4.2,1.7-10.6,3.2-19.1,4.4
				c-4.8,0.7-8.2,1.5-10.2,2.3c-2,0.9-3.5,2.1-4.6,3.8c-1.1,1.7-1.6,3.5-1.6,5.6c0,3.1,1.2,5.7,3.5,7.8c2.4,2.1,5.8,3.1,10.4,3.1
				c4.5,0,8.5-1,12-3c3.5-2,6.1-4.7,7.7-8.1c1.3-2.6,1.9-6.5,1.9-11.7V1166.4z"/>
			<path class="st3" d="M778.8,1201v-8.7c-4.4,6.8-10.8,10.3-19.3,10.3c-5.5,0-10.6-1.5-15.2-4.5c-4.6-3-8.2-7.3-10.7-12.7
				c-2.5-5.4-3.8-11.7-3.8-18.7c0-6.9,1.1-13.1,3.4-18.7c2.3-5.6,5.7-9.9,10.3-12.9c4.6-3,9.7-4.5,15.4-4.5c4.2,0,7.9,0.9,11.1,2.6
				c3.2,1.8,5.9,4,7.9,6.9v-34.2h11.6v95.2H778.8z M741.8,1166.6c0,8.8,1.9,15.4,5.6,19.8s8.1,6.6,13.2,6.6c5.1,0,9.4-2.1,13-6.3
				c3.6-4.2,5.4-10.6,5.4-19.1c0-9.4-1.8-16.4-5.5-20.8s-8.1-6.6-13.4-6.6c-5.2,0-9.5,2.1-13,6.4
				C743.6,1150.8,741.8,1157.4,741.8,1166.6z"/>
			<path class="st3" d="M853,1192.5c-4.3,3.7-8.5,6.3-12.5,7.8c-4,1.5-8.3,2.3-12.9,2.3c-7.6,0-13.4-1.9-17.5-5.6
				c-4.1-3.7-6.1-8.4-6.1-14.2c0-3.4,0.8-6.5,2.3-9.3c1.5-2.8,3.5-5,6-6.7c2.5-1.7,5.3-3,8.4-3.8c2.3-0.6,5.8-1.2,10.4-1.8
				c9.4-1.1,16.4-2.5,20.8-4c0-1.6,0.1-2.6,0.1-3.1c0-4.8-1.1-8.1-3.3-10.1c-3-2.6-7.4-4-13.3-4c-5.5,0-9.6,1-12.2,2.9
				c-2.6,1.9-4.6,5.3-5.8,10.2l-11.4-1.6c1-4.9,2.7-8.8,5.1-11.9c2.4-3,5.8-5.3,10.3-6.9c4.5-1.6,9.7-2.4,15.7-2.4
				c5.9,0,10.7,0.7,14.4,2.1c3.7,1.4,6.4,3.1,8.1,5.2c1.7,2.1,2.9,4.8,3.6,8c0.4,2,0.6,5.6,0.6,10.8v15.6c0,10.9,0.2,17.7,0.7,20.6
				c0.5,2.9,1.5,5.6,3,8.3h-12.2C854.1,1198.6,853.4,1195.7,853,1192.5z M852,1166.4c-4.2,1.7-10.6,3.2-19.1,4.4
				c-4.8,0.7-8.2,1.5-10.2,2.3c-2,0.9-3.5,2.1-4.6,3.8c-1.1,1.7-1.6,3.5-1.6,5.6c0,3.1,1.2,5.7,3.5,7.8c2.4,2.1,5.8,3.1,10.4,3.1
				c4.5,0,8.5-1,12-3c3.5-2,6.1-4.7,7.7-8.1c1.3-2.6,1.9-6.5,1.9-11.7V1166.4z"/>
			<path class="st3" d="M966.1,1178.8l12.1,1.5c-1.9,7.1-5.4,12.5-10.6,16.4s-11.7,5.8-19.7,5.8c-10.1,0-18.1-3.1-24-9.3
				c-5.9-6.2-8.9-14.9-8.9-26.1c0-11.6,3-20.6,9-27c6-6.4,13.7-9.6,23.2-9.6c9.2,0,16.8,3.1,22.6,9.4c5.8,6.3,8.8,15.1,8.8,26.5
				c0,0.7,0,1.7-0.1,3.1h-51.4c0.4,7.6,2.6,13.4,6.4,17.4c3.9,4,8.7,6,14.4,6c4.3,0,7.9-1.1,11-3.4
				C962,1187.3,964.4,1183.7,966.1,1178.8z M927.8,1159.9h38.5c-0.5-5.8-2-10.2-4.4-13.1c-3.7-4.5-8.6-6.8-14.5-6.8
				c-5.4,0-9.9,1.8-13.5,5.4C930.2,1149.1,928.2,1153.9,927.8,1159.9z"/>
			<path class="st3" d="M992.6,1201v-95.2h11.7v95.2H992.6z"/>
			<path class="st3" d="M1062.2,1201v-59.9h-10.3v-9.1h10.3v-7.3c0-4.6,0.4-8.1,1.2-10.3c1.1-3,3.1-5.5,5.9-7.4
				c2.8-1.9,6.8-2.8,11.9-2.8c3.3,0,6.9,0.4,10.9,1.2l-1.8,10.2c-2.4-0.4-4.7-0.6-6.9-0.6c-3.6,0-6.1,0.8-7.5,2.3
				c-1.5,1.5-2.2,4.4-2.2,8.5v6.4h13.4v9.1h-13.4v59.9H1062.2z"/>
			<path class="st3" d="M1092,1166.5c0-12.8,3.5-22.2,10.7-28.4c5.9-5.1,13.2-7.7,21.7-7.7c9.5,0,17.2,3.1,23.2,9.3
				c6,6.2,9,14.8,9,25.7c0,8.9-1.3,15.9-4,20.9c-2.7,5.1-6.5,9-11.6,11.9c-5.1,2.8-10.6,4.2-16.7,4.2c-9.7,0-17.5-3.1-23.4-9.3
				C1095,1187.1,1092,1178.2,1092,1166.5z M1104,1166.5c0,8.8,1.9,15.4,5.8,19.8c3.9,4.4,8.7,6.6,14.5,6.6c5.8,0,10.6-2.2,14.5-6.6
				s5.8-11.1,5.8-20.2c0-8.5-1.9-15-5.8-19.4c-3.9-4.4-8.7-6.6-14.4-6.6c-5.8,0-10.7,2.2-14.5,6.6
				C1105.9,1151.1,1104,1157.7,1104,1166.5z"/>
			<path class="st3" d="M1170.2,1201v-69h10.5v10.5c2.7-4.9,5.2-8.1,7.4-9.7c2.3-1.6,4.8-2.3,7.5-2.3c3.9,0,7.9,1.3,12,3.8l-4,10.8
				c-2.9-1.7-5.7-2.5-8.6-2.5c-2.6,0-4.8,0.8-6.9,2.3c-2,1.5-3.5,3.7-4.4,6.4c-1.3,4.2-1.9,8.7-1.9,13.6v36.1H1170.2z"/>
			<path class="st3" d="M1214.6,1201v-69h10.5v9.7c2.2-3.4,5-6.1,8.6-8.2c3.6-2.1,7.7-3.1,12.3-3.1c5.1,0,9.3,1.1,12.6,3.2
				c3.3,2.1,5.6,5.1,6.9,8.9c5.5-8.1,12.6-12.1,21.3-12.1c6.8,0,12.1,1.9,15.8,5.7c3.7,3.8,5.5,9.6,5.5,17.5v47.3h-11.6v-43.4
				c0-4.7-0.4-8-1.1-10.1c-0.8-2.1-2.1-3.7-4.1-5c-2-1.3-4.3-1.9-7-1.9c-4.8,0-8.9,1.6-12.1,4.8c-3.2,3.2-4.8,8.4-4.8,15.5v40.1
				h-11.7v-44.8c0-5.2-1-9.1-2.9-11.7c-1.9-2.6-5-3.9-9.4-3.9c-3.3,0-6.3,0.9-9.1,2.6c-2.8,1.7-4.8,4.3-6.1,7.6
				c-1.3,3.3-1.9,8.1-1.9,14.4v35.8H1214.6z"/>
			<path class="st3" d="M1370.6,1201v-10.1c-5.4,7.8-12.7,11.7-21.9,11.7c-4.1,0-7.9-0.8-11.4-2.3c-3.5-1.6-6.1-3.5-7.9-5.9
				c-1.7-2.4-2.9-5.2-3.6-8.7c-0.5-2.3-0.7-5.9-0.7-10.9V1132h11.7v38.3c0,6.1,0.2,10.2,0.7,12.3c0.7,3.1,2.3,5.5,4.7,7.2
				c2.4,1.8,5.3,2.6,8.8,2.6s6.8-0.9,9.9-2.7c3.1-1.8,5.2-4.2,6.5-7.3c1.3-3.1,1.9-7.6,1.9-13.5v-37h11.7v69H1370.6z"/>
			<path class="st3" d="M1399.1,1201v-95.2h11.7v95.2H1399.1z"/>
			<path class="st3" d="M1473.9,1192.5c-4.3,3.7-8.5,6.3-12.5,7.8c-4,1.5-8.3,2.3-12.9,2.3c-7.6,0-13.4-1.9-17.5-5.6
				c-4.1-3.7-6.1-8.4-6.1-14.2c0-3.4,0.8-6.5,2.3-9.3c1.5-2.8,3.5-5,6-6.7c2.5-1.7,5.3-3,8.4-3.8c2.3-0.6,5.8-1.2,10.4-1.8
				c9.4-1.1,16.4-2.5,20.8-4c0-1.6,0.1-2.6,0.1-3.1c0-4.8-1.1-8.1-3.3-10.1c-3-2.6-7.4-4-13.3-4c-5.5,0-9.6,1-12.2,2.9
				c-2.6,1.9-4.6,5.3-5.8,10.2l-11.4-1.6c1-4.9,2.7-8.8,5.1-11.9c2.4-3,5.8-5.3,10.3-6.9c4.5-1.6,9.7-2.4,15.7-2.4
				c5.9,0,10.7,0.7,14.4,2.1c3.7,1.4,6.4,3.1,8.1,5.2c1.7,2.1,2.9,4.8,3.6,8c0.4,2,0.6,5.6,0.6,10.8v15.6c0,10.9,0.2,17.7,0.7,20.6
				c0.5,2.9,1.5,5.6,3,8.3h-12.2C1475.1,1198.6,1474.3,1195.7,1473.9,1192.5z M1473,1166.4c-4.2,1.7-10.6,3.2-19.1,4.4
				c-4.8,0.7-8.2,1.5-10.2,2.3c-2,0.9-3.5,2.1-4.6,3.8c-1.1,1.7-1.6,3.5-1.6,5.6c0,3.1,1.2,5.7,3.5,7.8c2.4,2.1,5.8,3.1,10.4,3.1
				c4.5,0,8.5-1,12-3c3.5-2,6.1-4.7,7.7-8.1c1.3-2.6,1.9-6.5,1.9-11.7V1166.4z"/>
			<path class="st3" d="M1502.8,1201v-69h10.5v10.5c2.7-4.9,5.2-8.1,7.4-9.7c2.3-1.6,4.8-2.3,7.5-2.3c3.9,0,7.9,1.3,12,3.8l-4,10.8
				c-2.9-1.7-5.7-2.5-8.6-2.5c-2.6,0-4.8,0.8-6.9,2.3c-2,1.5-3.5,3.7-4.4,6.4c-1.3,4.2-1.9,8.7-1.9,13.6v36.1H1502.8z"/>
			<path class="st3" d="M1547.2,1119.2v-13.4h11.7v13.4H1547.2z M1547.2,1201v-69h11.7v69H1547.2z"/>
			<path class="st3" d="M1572.4,1166.5c0-12.8,3.5-22.2,10.7-28.4c5.9-5.1,13.2-7.7,21.7-7.7c9.5,0,17.2,3.1,23.2,9.3
				c6,6.2,9,14.8,9,25.7c0,8.9-1.3,15.9-4,20.9c-2.7,5.1-6.5,9-11.6,11.9c-5.1,2.8-10.6,4.2-16.7,4.2c-9.7,0-17.5-3.1-23.4-9.3
				C1575.4,1187.1,1572.4,1178.2,1572.4,1166.5z M1584.4,1166.5c0,8.8,1.9,15.4,5.8,19.8c3.9,4.4,8.7,6.6,14.5,6.6
				c5.8,0,10.6-2.2,14.5-6.6s5.8-11.1,5.8-20.2c0-8.5-1.9-15-5.8-19.4c-3.9-4.4-8.7-6.6-14.4-6.6c-5.8,0-10.7,2.2-14.5,6.6
				C1586.3,1151.1,1584.4,1157.7,1584.4,1166.5z"/>
			<path class="st3" d="M620,1352.1c-4.3,3.7-8.5,6.3-12.5,7.8c-4,1.5-8.3,2.3-12.9,2.3c-7.6,0-13.4-1.9-17.5-5.6
				c-4.1-3.7-6.1-8.4-6.1-14.2c0-3.4,0.8-6.5,2.3-9.3c1.5-2.8,3.5-5,6-6.7c2.5-1.7,5.3-3,8.4-3.8c2.3-0.6,5.8-1.2,10.4-1.8
				c9.4-1.1,16.4-2.5,20.8-4c0-1.6,0.1-2.6,0.1-3.1c0-4.8-1.1-8.1-3.3-10.1c-3-2.6-7.4-4-13.3-4c-5.5,0-9.6,1-12.2,2.9
				c-2.6,1.9-4.6,5.3-5.8,10.2l-11.4-1.6c1-4.9,2.7-8.8,5.1-11.9c2.4-3,5.8-5.3,10.3-6.9c4.5-1.6,9.7-2.4,15.7-2.4
				c5.9,0,10.7,0.7,14.4,2.1c3.7,1.4,6.4,3.1,8.1,5.2c1.7,2.1,2.9,4.8,3.6,8c0.4,2,0.6,5.6,0.6,10.8v15.6c0,10.9,0.2,17.7,0.7,20.6
				c0.5,2.9,1.5,5.6,3,8.3h-12.2C621.1,1358.2,620.3,1355.3,620,1352.1z M619,1326c-4.2,1.7-10.6,3.2-19.1,4.4
				c-4.8,0.7-8.2,1.5-10.2,2.3c-2,0.9-3.5,2.1-4.6,3.8c-1.1,1.7-1.6,3.5-1.6,5.6c0,3.1,1.2,5.7,3.5,7.8c2.4,2.1,5.8,3.1,10.4,3.1
				c4.5,0,8.5-1,12-3c3.5-2,6.1-4.7,7.7-8.1c1.3-2.6,1.9-6.5,1.9-11.7V1326z"/>
			<path class="st3" d="M681.2,1340l11.6-1.8c0.6,4.6,2.5,8.2,5.4,10.7c3,2.5,7.1,3.7,12.4,3.7c5.4,0,9.4-1.1,11.9-3.3
				c2.6-2.2,3.9-4.8,3.9-7.7c0-2.6-1.1-4.7-3.4-6.2c-1.6-1-5.6-2.4-11.9-4c-8.6-2.2-14.5-4-17.8-5.6c-3.3-1.6-5.8-3.8-7.5-6.6
				c-1.7-2.8-2.6-5.9-2.6-9.3c0-3.1,0.7-5.9,2.1-8.5c1.4-2.6,3.3-4.8,5.7-6.5c1.8-1.3,4.3-2.5,7.4-3.4c3.1-0.9,6.5-1.4,10.1-1.4
				c5.4,0,10.2,0.8,14.3,2.3c4.1,1.6,7.1,3.7,9.1,6.3c1.9,2.7,3.3,6.2,4,10.7l-11.4,1.6c-0.5-3.5-2-6.3-4.5-8.3c-2.5-2-6-3-10.6-3
				c-5.4,0-9.2,0.9-11.5,2.7c-2.3,1.8-3.4,3.9-3.4,6.2c0,1.5,0.5,2.9,1.4,4.1c1,1.3,2.4,2.3,4.5,3.1c1.2,0.4,4.6,1.4,10.3,3
				c8.3,2.2,14,4,17.3,5.4c3.3,1.4,5.8,3.5,7.7,6.1c1.9,2.7,2.8,6,2.8,10c0,3.9-1.1,7.6-3.4,11c-2.3,3.4-5.6,6.1-9.8,8
				c-4.3,1.9-9.1,2.8-14.5,2.8c-9,0-15.8-1.9-20.5-5.6C685.5,1352.9,682.5,1347.3,681.2,1340z"/>
			<path class="st3" d="M797.6,1360.6v-10.1c-5.4,7.8-12.7,11.7-21.9,11.7c-4.1,0-7.9-0.8-11.4-2.3c-3.5-1.6-6.1-3.5-7.9-5.9
				c-1.7-2.4-2.9-5.2-3.6-8.7c-0.5-2.3-0.7-5.9-0.7-10.9v-42.7h11.7v38.3c0,6.1,0.2,10.2,0.7,12.3c0.7,3.1,2.3,5.5,4.7,7.2
				c2.4,1.8,5.3,2.6,8.8,2.6s6.8-0.9,9.9-2.7c3.1-1.8,5.2-4.2,6.5-7.3c1.3-3.1,1.9-7.6,1.9-13.5v-37H808v69H797.6z"/>
			<path class="st3" d="M863.3,1387v-95.4H874v9c2.5-3.5,5.3-6.1,8.5-7.9c3.2-1.8,7-2.6,11.5-2.6c5.9,0,11.1,1.5,15.6,4.5
				c4.5,3,7.9,7.3,10.2,12.8c2.3,5.5,3.4,11.6,3.4,18.2c0,7.1-1.3,13.4-3.8,19.1c-2.5,5.7-6.2,10-11,13c-4.8,3-9.9,4.5-15.2,4.5
				c-3.9,0-7.4-0.8-10.5-2.5c-3.1-1.6-5.6-3.7-7.6-6.2v33.6H863.3z M873.9,1326.5c0,8.9,1.8,15.4,5.4,19.7c3.6,4.2,7.9,6.4,13.1,6.4
				c5.2,0,9.6-2.2,13.3-6.6c3.7-4.4,5.6-11.2,5.6-20.4c0-8.8-1.8-15.4-5.4-19.7c-3.6-4.4-7.9-6.6-13-6.6c-5,0-9.4,2.3-13.2,7
				C875.8,1310.9,873.9,1317.6,873.9,1326.5z"/>
			<path class="st3" d="M982.3,1352.1c-4.3,3.7-8.5,6.3-12.5,7.8c-4,1.5-8.3,2.3-12.9,2.3c-7.6,0-13.4-1.9-17.5-5.6
				c-4.1-3.7-6.1-8.4-6.1-14.2c0-3.4,0.8-6.5,2.3-9.3c1.5-2.8,3.5-5,6-6.7c2.5-1.7,5.3-3,8.4-3.8c2.3-0.6,5.8-1.2,10.4-1.8
				c9.4-1.1,16.4-2.5,20.8-4c0-1.6,0.1-2.6,0.1-3.1c0-4.8-1.1-8.1-3.3-10.1c-3-2.6-7.4-4-13.3-4c-5.5,0-9.6,1-12.2,2.9
				c-2.6,1.9-4.6,5.3-5.8,10.2l-11.4-1.6c1-4.9,2.7-8.8,5.1-11.9c2.4-3,5.8-5.3,10.3-6.9c4.5-1.6,9.7-2.4,15.7-2.4
				c5.9,0,10.7,0.7,14.4,2.1c3.7,1.4,6.4,3.1,8.1,5.2c1.7,2.1,2.9,4.8,3.6,8c0.4,2,0.6,5.6,0.6,10.8v15.6c0,10.9,0.2,17.7,0.7,20.6
				c0.5,2.9,1.5,5.6,3,8.3h-12.2C983.4,1358.2,982.6,1355.3,982.3,1352.1z M981.3,1326c-4.2,1.7-10.6,3.2-19.1,4.4
				c-4.8,0.7-8.2,1.5-10.2,2.3c-2,0.9-3.5,2.1-4.6,3.8c-1.1,1.7-1.6,3.5-1.6,5.6c0,3.1,1.2,5.7,3.5,7.8c2.4,2.1,5.8,3.1,10.4,3.1
				c4.5,0,8.5-1,12-3c3.5-2,6.1-4.7,7.7-8.1c1.3-2.6,1.9-6.5,1.9-11.7V1326z M958.6,1283.1l8.6-18.2h15.3l-14.3,18.2H958.6z"/>
			<path class="st3" d="M1009.1,1366.3l11.4,1.7c0.5,3.5,1.8,6.1,4,7.7c2.9,2.2,6.9,3.2,11.9,3.2c5.4,0,9.6-1.1,12.5-3.2
				c2.9-2.2,4.9-5.2,6-9.1c0.6-2.4,0.9-7.4,0.8-15c-5.1,6-11.5,9-19.1,9c-9.5,0-16.8-3.4-22-10.3c-5.2-6.8-7.8-15-7.8-24.6
				c0-6.6,1.2-12.7,3.6-18.2c2.4-5.6,5.8-9.9,10.4-12.9c4.5-3,9.8-4.5,15.9-4.5c8.1,0,14.8,3.3,20.1,9.9v-8.3h10.8v59.6
				c0,10.7-1.1,18.3-3.3,22.8c-2.2,4.5-5.7,8-10.4,10.6c-4.7,2.6-10.6,3.9-17.5,3.9c-8.2,0-14.9-1.9-19.9-5.6
				C1011.4,1379.3,1008.9,1373.8,1009.1,1366.3z M1018.8,1324.9c0,9,1.8,15.7,5.4,19.8c3.6,4.2,8.1,6.2,13.5,6.2
				c5.4,0,9.9-2.1,13.5-6.2c3.6-4.1,5.5-10.6,5.5-19.5c0-8.4-1.9-14.8-5.6-19.1c-3.7-4.3-8.3-6.4-13.5-6.4c-5.2,0-9.6,2.1-13.2,6.3
				C1020.6,1310.3,1018.8,1316.6,1018.8,1324.9z"/>
			<path class="st3" d="M1085.3,1278.8v-13.4h11.7v13.4H1085.3z M1085.3,1360.6v-69h11.7v69H1085.3z"/>
			<path class="st3" d="M1114.8,1360.6v-69h10.5v9.8c5.1-7.6,12.4-11.4,22-11.4c4.2,0,8,0.7,11.5,2.2c3.5,1.5,6.1,3.5,7.8,5.9
				c1.7,2.4,2.9,5.3,3.6,8.6c0.4,2.2,0.6,6,0.6,11.4v42.4h-11.7v-42c0-4.8-0.5-8.3-1.4-10.7c-0.9-2.4-2.5-4.2-4.8-5.7
				c-2.3-1.4-5-2.1-8.2-2.1c-5,0-9.3,1.6-12.9,4.7c-3.6,3.2-5.4,9.2-5.4,18v37.7H1114.8z"/>
			<path class="st3" d="M1233.7,1352.1c-4.3,3.7-8.5,6.3-12.5,7.8c-4,1.5-8.3,2.3-12.9,2.3c-7.6,0-13.4-1.9-17.5-5.6
				c-4.1-3.7-6.1-8.4-6.1-14.2c0-3.4,0.8-6.5,2.3-9.3c1.5-2.8,3.5-5,6-6.7c2.5-1.7,5.3-3,8.4-3.8c2.3-0.6,5.8-1.2,10.4-1.8
				c9.4-1.1,16.4-2.5,20.8-4c0-1.6,0.1-2.6,0.1-3.1c0-4.8-1.1-8.1-3.3-10.1c-3-2.6-7.4-4-13.3-4c-5.5,0-9.6,1-12.2,2.9
				c-2.6,1.9-4.6,5.3-5.8,10.2l-11.4-1.6c1-4.9,2.7-8.8,5.1-11.9c2.4-3,5.8-5.3,10.3-6.9c4.5-1.6,9.7-2.4,15.7-2.4
				c5.9,0,10.7,0.7,14.4,2.1c3.7,1.4,6.4,3.1,8.1,5.2c1.7,2.1,2.9,4.8,3.6,8c0.4,2,0.6,5.6,0.6,10.8v15.6c0,10.9,0.2,17.7,0.7,20.6
				c0.5,2.9,1.5,5.6,3,8.3h-12.2C1234.9,1358.2,1234.1,1355.3,1233.7,1352.1z M1232.8,1326c-4.2,1.7-10.6,3.2-19.1,4.4
				c-4.8,0.7-8.2,1.5-10.2,2.3c-2,0.9-3.5,2.1-4.6,3.8c-1.1,1.7-1.6,3.5-1.6,5.6c0,3.1,1.2,5.7,3.5,7.8c2.4,2.1,5.8,3.1,10.4,3.1
				c4.5,0,8.5-1,12-3c3.5-2,6.1-4.7,7.7-8.1c1.3-2.6,1.9-6.5,1.9-11.7V1326z"/>
			<path class="st3" d="M1301.4,1360.6v-95.2h68.8v11.2H1314v29.2h52.7v11.2H1314v32.4h58.4v11.2H1301.4z"/>
			<path class="st3" d="M1389.9,1360.6v-95.2h32.8c7.4,0,13.1,0.5,16.9,1.4c5.5,1.3,10.1,3.5,14,6.8c5,4.2,8.8,9.7,11.3,16.3
				c2.5,6.6,3.7,14.1,3.7,22.6c0,7.2-0.8,13.6-2.5,19.2c-1.7,5.6-3.9,10.2-6.5,13.9c-2.6,3.7-5.5,6.5-8.7,8.6
				c-3.1,2.1-6.9,3.7-11.4,4.8c-4.4,1.1-9.5,1.6-15.3,1.6H1389.9z M1402.5,1349.4h20.3c6.3,0,11.2-0.6,14.8-1.8
				c3.6-1.2,6.4-2.8,8.5-4.9c3-3,5.3-7,7-12c1.7-5,2.5-11.2,2.5-18.3c0-10-1.6-17.6-4.9-23c-3.3-5.3-7.2-8.9-11.9-10.7
				c-3.4-1.3-8.8-1.9-16.3-1.9h-20V1349.4z"/>
			<path class="st3" d="M1481.6,1330l11.9-1c0.6,4.8,1.9,8.7,3.9,11.7c2.1,3.1,5.2,5.5,9.6,7.4c4.3,1.9,9.2,2.8,14.6,2.8
				c4.8,0,9-0.7,12.7-2.1c3.7-1.4,6.4-3.4,8.2-5.9c1.8-2.5,2.7-5.2,2.7-8.2c0-3-0.9-5.6-2.6-7.8c-1.7-2.2-4.6-4.1-8.6-5.6
				c-2.6-1-8.2-2.5-16.9-4.6c-8.7-2.1-14.9-4.1-18.4-5.9c-4.5-2.4-7.9-5.3-10.2-8.9c-2.2-3.5-3.3-7.5-3.3-11.9
				c0-4.8,1.4-9.3,4.1-13.5c2.7-4.2,6.7-7.3,11.9-9.5c5.2-2.2,11.1-3.2,17.5-3.2c7.1,0,13.3,1.1,18.7,3.4c5.4,2.3,9.5,5.6,12.4,10
				c2.9,4.4,4.5,9.4,4.7,15l-12.1,0.9c-0.6-6-2.8-10.6-6.6-13.6c-3.7-3.1-9.3-4.6-16.6-4.6c-7.6,0-13.2,1.4-16.7,4.2
				c-3.5,2.8-5.2,6.2-5.2,10.1c0,3.4,1.2,6.2,3.7,8.4c2.4,2.2,8.8,4.5,19,6.8c10.2,2.3,17.3,4.3,21.1,6.1c5.5,2.6,9.6,5.8,12.3,9.7
				c2.6,3.9,4,8.4,4,13.5c0,5.1-1.5,9.8-4.4,14.3c-2.9,4.5-7.1,8-12.5,10.5c-5.4,2.5-11.5,3.7-18.3,3.7c-8.6,0-15.8-1.3-21.7-3.8
				c-5.8-2.5-10.4-6.3-13.7-11.3C1483.5,1342.1,1481.8,1336.4,1481.6,1330z"/>
		</g>
		<path class="st4" d="M1725.5,1028.3c0-57.9,46.9-104.8,104.8-104.8h1012.3c57.9,0,104.8,46.9,104.8,104.8v419.3
			c0,57.9-46.9,104.8-104.8,104.8H1830.3c-57.9,0-104.8-46.9-104.8-104.8V1028.3z"/>
		<g class="st2">
			<path class="st3" d="M1881.2,1111.6l12.1,3.1c-2.5,10-7.1,17.6-13.7,22.8c-6.6,5.2-14.7,7.8-24.2,7.8c-9.9,0-17.9-2-24.1-6
				c-6.2-4-10.9-9.8-14.1-17.5c-3.2-7.6-4.8-15.8-4.8-24.6c0-9.5,1.8-17.9,5.5-25c3.6-7.1,8.8-12.5,15.6-16.2
				c6.7-3.7,14.1-5.5,22.2-5.5c9.2,0,16.9,2.3,23.1,7c6.2,4.7,10.6,11.2,13.1,19.7l-11.9,2.8c-2.1-6.7-5.2-11.5-9.2-14.6
				c-4-3-9.1-4.6-15.2-4.6c-7,0-12.9,1.7-17.7,5.1c-4.7,3.4-8.1,7.9-10,13.6c-1.9,5.7-2.9,11.6-2.9,17.6c0,7.8,1.1,14.6,3.4,20.4
				c2.3,5.8,5.8,10.2,10.6,13c4.8,2.9,10,4.3,15.6,4.3c6.8,0,12.5-2,17.2-5.9C1876.3,1125.1,1879.5,1119.3,1881.2,1111.6z"/>
			<path class="st3" d="M1906.7,1143.7v-66.4h10.1v10.1c2.6-4.7,5-7.8,7.2-9.3s4.6-2.2,7.2-2.2c3.8,0,7.6,1.2,11.6,3.6l-3.9,10.4
				c-2.8-1.6-5.5-2.4-8.2-2.4c-2.5,0-4.7,0.7-6.6,2.2c-2,1.5-3.4,3.5-4.2,6.2c-1.2,4-1.9,8.4-1.9,13.1v34.8H1906.7z"/>
			<path class="st3" d="M1994.9,1122.3l11.6,1.4c-1.8,6.8-5.2,12.1-10.2,15.8c-5,3.8-11.3,5.6-19,5.6c-9.7,0-17.4-3-23.1-9
				c-5.7-6-8.5-14.4-8.5-25.2c0-11.2,2.9-19.8,8.6-26c5.8-6.2,13.2-9.2,22.4-9.2c8.9,0,16.1,3,21.8,9.1c5.6,6,8.4,14.5,8.4,25.5
				c0,0.7,0,1.7-0.1,3h-49.5c0.4,7.3,2.5,12.9,6.2,16.8c3.7,3.9,8.3,5.8,13.9,5.8c4.1,0,7.6-1.1,10.6-3.2
				C1990.9,1130.5,1993.2,1127.1,1994.9,1122.3z M1957.9,1104.1h37.1c-0.5-5.6-1.9-9.8-4.2-12.6c-3.6-4.3-8.2-6.5-13.9-6.5
				c-5.2,0-9.5,1.7-13,5.2C1960.3,1093.7,1958.3,1098.4,1957.9,1104.1z"/>
			<path class="st3" d="M2066.1,1122.3l11.6,1.4c-1.8,6.8-5.2,12.1-10.2,15.8c-5,3.8-11.3,5.6-19,5.6c-9.7,0-17.4-3-23.1-9
				c-5.7-6-8.5-14.4-8.5-25.2c0-11.2,2.9-19.8,8.6-26c5.8-6.2,13.2-9.2,22.4-9.2c8.9,0,16.1,3,21.8,9.1c5.6,6,8.4,14.5,8.4,25.5
				c0,0.7,0,1.7-0.1,3h-49.5c0.4,7.3,2.5,12.9,6.2,16.8c3.7,3.9,8.3,5.8,13.9,5.8c4.1,0,7.6-1.1,10.6-3.2
				C2062,1130.5,2064.4,1127.1,2066.1,1122.3z M2029.1,1104.1h37.1c-0.5-5.6-1.9-9.8-4.2-12.6c-3.6-4.3-8.2-6.5-13.9-6.5
				c-5.2,0-9.5,1.7-13,5.2C2031.5,1093.7,2029.5,1098.4,2029.1,1104.1z"/>
			<path class="st3" d="M2170.9,1143.7v-9.8c-5.2,7.5-12.2,11.2-21.1,11.2c-3.9,0-7.6-0.8-11-2.2c-3.4-1.5-5.9-3.4-7.6-5.7
				c-1.6-2.3-2.8-5.1-3.5-8.3c-0.5-2.2-0.7-5.7-0.7-10.5v-41.1h11.2v36.8c0,5.9,0.2,9.8,0.7,11.9c0.7,3,2.2,5.3,4.5,7
				c2.3,1.7,5.1,2.5,8.5,2.5s6.5-0.9,9.5-2.6c3-1.7,5.1-4.1,6.3-7.1c1.2-3,1.8-7.3,1.8-13v-35.6h11.2v66.4H2170.9z"/>
			<path class="st3" d="M2198.6,1143.7v-66.4h10.1v9.4c4.9-7.3,11.9-10.9,21.1-10.9c4,0,7.7,0.7,11,2.2c3.4,1.4,5.9,3.3,7.5,5.7
				c1.7,2.3,2.8,5.1,3.5,8.3c0.4,2.1,0.6,5.7,0.6,10.9v40.8h-11.2v-40.4c0-4.6-0.4-8-1.3-10.3c-0.9-2.3-2.4-4.1-4.7-5.4
				c-2.2-1.4-4.8-2-7.8-2c-4.8,0-8.9,1.5-12.4,4.6c-3.5,3-5.2,8.8-5.2,17.3v36.2H2198.6z"/>
			<path class="st3" d="M2308,1143.7v-57.6h-9.9v-8.8h9.9v-7.1c0-4.5,0.4-7.8,1.2-9.9c1.1-2.9,3-5.3,5.7-7.1
				c2.7-1.8,6.6-2.7,11.5-2.7c3.2,0,6.7,0.4,10.5,1.1l-1.7,9.8c-2.3-0.4-4.5-0.6-6.6-0.6c-3.4,0-5.8,0.7-7.2,2.2
				c-1.4,1.5-2.1,4.2-2.1,8.2v6.1h12.9v8.8h-12.9v57.6H2308z"/>
			<path class="st3" d="M2336.7,1110.5c0-12.3,3.4-21.4,10.2-27.3c5.7-4.9,12.7-7.4,20.9-7.4c9.1,0,16.6,3,22.4,9
				c5.8,6,8.7,14.2,8.7,24.8c0,8.5-1.3,15.3-3.8,20.2c-2.6,4.9-6.3,8.7-11.2,11.4s-10.2,4.1-16,4.1c-9.3,0-16.8-3-22.5-8.9
				C2339.6,1130.3,2336.7,1121.7,2336.7,1110.5z M2348.3,1110.5c0,8.5,1.9,14.9,5.6,19.1c3.7,4.2,8.4,6.3,14,6.3
				c5.6,0,10.2-2.1,13.9-6.4s5.6-10.7,5.6-19.4c0-8.2-1.9-14.4-5.6-18.7c-3.7-4.2-8.4-6.3-13.9-6.3c-5.6,0-10.3,2.1-14,6.3
				C2350.1,1095.7,2348.3,1102,2348.3,1110.5z"/>
			<path class="st3" d="M2411.9,1143.7v-66.4h10.1v10.1c2.6-4.7,5-7.8,7.2-9.3s4.6-2.2,7.2-2.2c3.8,0,7.6,1.2,11.6,3.6l-3.9,10.4
				c-2.8-1.6-5.5-2.4-8.2-2.4c-2.5,0-4.7,0.7-6.6,2.2c-2,1.5-3.4,3.5-4.2,6.2c-1.2,4-1.9,8.4-1.9,13.1v34.8H2411.9z"/>
			<path class="st3" d="M2454.7,1143.7v-66.4h10.1v9.3c2.1-3.2,4.9-5.9,8.3-7.8c3.5-2,7.4-3,11.8-3c4.9,0,8.9,1,12.1,3.1
				c3.1,2,5.4,4.9,6.7,8.6c5.2-7.8,12.1-11.6,20.5-11.6c6.6,0,11.6,1.8,15.2,5.5c3.5,3.6,5.3,9.3,5.3,16.8v45.6h-11.2v-41.8
				c0-4.5-0.4-7.7-1.1-9.7c-0.7-2-2.1-3.6-4-4.8c-1.9-1.2-4.2-1.8-6.8-1.8c-4.7,0-8.5,1.6-11.6,4.7c-3.1,3.1-4.6,8.1-4.6,14.9v38.6
				h-11.2v-43.1c0-5-0.9-8.8-2.8-11.2s-4.8-3.8-9-3.8c-3.2,0-6.1,0.8-8.8,2.5c-2.7,1.7-4.6,4.1-5.8,7.3c-1.2,3.2-1.8,7.8-1.8,13.9
				v34.4H2454.7z"/>
			<path class="st3" d="M2604.8,1143.7v-9.8c-5.2,7.5-12.2,11.2-21.1,11.2c-3.9,0-7.6-0.8-11-2.2s-5.9-3.4-7.6-5.7
				c-1.6-2.3-2.8-5.1-3.5-8.3c-0.5-2.2-0.7-5.7-0.7-10.5v-41.1h11.2v36.8c0,5.9,0.2,9.8,0.7,11.9c0.7,3,2.2,5.3,4.5,7
				s5.1,2.5,8.5,2.5s6.5-0.9,9.5-2.6c3-1.7,5.1-4.1,6.3-7.1c1.2-3,1.8-7.3,1.8-13v-35.6h11.2v66.4H2604.8z"/>
			<path class="st3" d="M2632.3,1143.7v-91.6h11.2v91.6H2632.3z"/>
			<path class="st3" d="M2704.3,1135.5c-4.2,3.5-8.2,6-12,7.5s-8,2.2-12.4,2.2c-7.3,0-12.9-1.8-16.8-5.3s-5.9-8.1-5.9-13.7
				c0-3.2,0.7-6.2,2.2-8.9s3.4-4.8,5.8-6.5s5.1-2.9,8.1-3.7c2.2-0.6,5.5-1.1,10-1.7c9.1-1.1,15.8-2.4,20.1-3.9
				c0-1.5,0.1-2.5,0.1-2.9c0-4.6-1.1-7.8-3.2-9.7c-2.9-2.5-7.1-3.8-12.8-3.8c-5.3,0-9.2,0.9-11.7,2.8c-2.5,1.9-4.4,5.1-5.6,9.8
				l-11-1.5c1-4.7,2.6-8.5,4.9-11.4c2.3-2.9,5.6-5.1,9.9-6.7s9.4-2.3,15.1-2.3c5.7,0,10.3,0.7,13.8,2c3.5,1.3,6.1,3,7.8,5
				c1.7,2,2.8,4.6,3.5,7.7c0.4,1.9,0.6,5.4,0.6,10.4v15c0,10.5,0.2,17.1,0.7,19.8c0.5,2.8,1.4,5.4,2.8,8h-11.8
				C2705.3,1141.4,2704.6,1138.6,2704.3,1135.5z M2703.3,1110.4c-4.1,1.7-10.2,3.1-18.4,4.2c-4.6,0.7-7.9,1.4-9.8,2.2
				c-1.9,0.8-3.4,2.1-4.4,3.7c-1,1.6-1.6,3.4-1.6,5.3c0,3,1.1,5.5,3.4,7.5s5.6,3,10,3c4.3,0,8.2-0.9,11.6-2.8
				c3.4-1.9,5.9-4.5,7.4-7.8c1.2-2.5,1.8-6.3,1.8-11.2V1110.4z"/>
			<path class="st3" d="M2732,1143.7v-66.4h10.1v10.1c2.6-4.7,5-7.8,7.2-9.3s4.6-2.2,7.2-2.2c3.8,0,7.6,1.2,11.6,3.6l-3.9,10.4
				c-2.8-1.6-5.5-2.4-8.2-2.4c-2.5,0-4.7,0.7-6.6,2.2c-2,1.5-3.4,3.5-4.2,6.2c-1.2,4-1.9,8.4-1.9,13.1v34.8H2732z"/>
			<path class="st3" d="M2774.8,1065v-12.9h11.2v12.9H2774.8z M2774.8,1143.7v-66.4h11.2v66.4H2774.8z"/>
			<path class="st3" d="M2799,1110.5c0-12.3,3.4-21.4,10.2-27.3c5.7-4.9,12.7-7.4,20.9-7.4c9.1,0,16.6,3,22.4,9
				c5.8,6,8.7,14.2,8.7,24.8c0,8.5-1.3,15.3-3.8,20.2c-2.6,4.9-6.3,8.7-11.2,11.4s-10.2,4.1-16,4.1c-9.3,0-16.8-3-22.5-8.9
				C2801.9,1130.3,2799,1121.7,2799,1110.5z M2810.6,1110.5c0,8.5,1.9,14.9,5.6,19.1c3.7,4.2,8.4,6.3,14,6.3
				c5.6,0,10.2-2.1,13.9-6.4s5.6-10.7,5.6-19.4c0-8.2-1.9-14.4-5.6-18.7c-3.7-4.2-8.4-6.3-13.9-6.3c-5.6,0-10.3,2.1-14,6.3
				C2812.4,1095.7,2810.6,1102,2810.6,1110.5z"/>
			<path class="st3" d="M1832.9,1273l11.1,1.4c-1.2,7.6-4.3,13.6-9.3,17.9c-5,4.3-11.1,6.5-18.3,6.5c-9.1,0-16.4-3-21.9-8.9
				c-5.5-5.9-8.3-14.4-8.3-25.5c0-7.2,1.2-13.4,3.6-18.8s6-9.4,10.8-12.1c4.9-2.7,10.1-4,15.8-4c7.2,0,13.1,1.8,17.7,5.5
				c4.6,3.6,7.5,8.8,8.8,15.5l-10.9,1.7c-1-4.5-2.9-7.8-5.5-10.1c-2.6-2.2-5.8-3.4-9.6-3.4c-5.7,0-10.3,2-13.8,6.1
				c-3.5,4.1-5.3,10.5-5.3,19.3c0,8.9,1.7,15.4,5.1,19.4c3.4,4,7.9,6.1,13.4,6.1c4.4,0,8.1-1.4,11.1-4.1
				C1830.2,1282.8,1832.1,1278.6,1832.9,1273z"/>
			<path class="st3" d="M1849.4,1264.1c0-12.3,3.4-21.4,10.2-27.3c5.7-4.9,12.7-7.4,20.9-7.4c9.1,0,16.6,3,22.4,9
				c5.8,6,8.7,14.2,8.7,24.8c0,8.5-1.3,15.3-3.8,20.2c-2.6,4.9-6.3,8.7-11.2,11.4c-4.9,2.7-10.2,4.1-16,4.1c-9.3,0-16.8-3-22.5-8.9
				C1852.2,1283.9,1849.4,1275.3,1849.4,1264.1z M1860.9,1264.1c0,8.5,1.9,14.9,5.6,19.1c3.7,4.2,8.4,6.3,14,6.3
				c5.6,0,10.2-2.1,13.9-6.4c3.7-4.2,5.6-10.7,5.6-19.4c0-8.2-1.9-14.4-5.6-18.7c-3.7-4.2-8.4-6.3-13.9-6.3c-5.6,0-10.3,2.1-14,6.3
				C1862.8,1249.3,1860.9,1255.6,1860.9,1264.1z"/>
			<path class="st3" d="M1924.7,1297.3v-66.4h10.1v9.4c4.9-7.3,11.9-10.9,21.1-10.9c4,0,7.7,0.7,11,2.2c3.4,1.4,5.9,3.3,7.5,5.7
				c1.7,2.3,2.8,5.1,3.5,8.3c0.4,2.1,0.6,5.7,0.6,10.9v40.8h-11.2v-40.4c0-4.6-0.4-8-1.3-10.3c-0.9-2.3-2.4-4.1-4.7-5.4
				c-2.2-1.4-4.8-2-7.8-2c-4.8,0-8.9,1.5-12.4,4.6c-3.5,3-5.2,8.8-5.2,17.3v36.2H1924.7z"/>
			<path class="st3" d="M2032.5,1297.3v-91.6h18.2l21.7,64.9c2,6,3.5,10.6,4.4,13.6c1-3.3,2.7-8.2,4.9-14.7l21.9-63.8h16.3v91.6
				h-11.7v-76.7l-26.6,76.7h-10.9l-26.5-78v78H2032.5z"/>
			<path class="st3" d="M2138.2,1218.6v-12.9h11.2v12.9H2138.2z M2138.2,1297.3v-66.4h11.2v66.4H2138.2z"/>
			<path class="st3" d="M2209.9,1273l11.1,1.4c-1.2,7.6-4.3,13.6-9.3,17.9c-5,4.3-11.1,6.5-18.3,6.5c-9.1,0-16.4-3-21.9-8.9
				c-5.5-5.9-8.3-14.4-8.3-25.5c0-7.2,1.2-13.4,3.6-18.8s6-9.4,10.8-12.1c4.9-2.7,10.1-4,15.8-4c7.2,0,13.1,1.8,17.7,5.5
				c4.6,3.6,7.5,8.8,8.8,15.5l-10.9,1.7c-1-4.5-2.9-7.8-5.5-10.1c-2.6-2.2-5.8-3.4-9.6-3.4c-5.7,0-10.3,2-13.8,6.1
				c-3.5,4.1-5.3,10.5-5.3,19.3c0,8.9,1.7,15.4,5.1,19.4c3.4,4,7.9,6.1,13.4,6.1c4.4,0,8.1-1.4,11.1-4.1
				C2207.2,1282.8,2209.1,1278.6,2209.9,1273z"/>
			<path class="st3" d="M2230.4,1297.3v-66.4h10.1v10.1c2.6-4.7,5-7.8,7.2-9.3s4.6-2.2,7.2-2.2c3.8,0,7.6,1.2,11.6,3.6l-3.9,10.4
				c-2.8-1.6-5.5-2.4-8.2-2.4c-2.5,0-4.7,0.7-6.6,2.2c-2,1.5-3.4,3.5-4.2,6.2c-1.2,4-1.9,8.4-1.9,13.1v34.8H2230.4z"/>
			<path class="st3" d="M2269,1264.1c0-12.3,3.4-21.4,10.2-27.3c5.7-4.9,12.7-7.4,20.9-7.4c9.1,0,16.6,3,22.4,9
				c5.8,6,8.7,14.2,8.7,24.8c0,8.5-1.3,15.3-3.8,20.2c-2.6,4.9-6.3,8.7-11.2,11.4c-4.9,2.7-10.2,4.1-16,4.1c-9.3,0-16.8-3-22.5-8.9
				C2271.8,1283.9,2269,1275.3,2269,1264.1z M2280.5,1264.1c0,8.5,1.9,14.9,5.6,19.1c3.7,4.2,8.4,6.3,14,6.3
				c5.6,0,10.2-2.1,13.9-6.4c3.7-4.2,5.6-10.7,5.6-19.4c0-8.2-1.9-14.4-5.6-18.7c-3.7-4.2-8.4-6.3-13.9-6.3c-5.6,0-10.3,2.1-14,6.3
				C2282.4,1249.3,2280.5,1255.6,2280.5,1264.1z"/>
			<path class="st3" d="M2339.8,1277.5l11.1-1.8c0.6,4.5,2.4,7.9,5.2,10.2s6.8,3.6,12,3.6c5.2,0,9-1.1,11.5-3.2
				c2.5-2.1,3.8-4.6,3.8-7.4c0-2.5-1.1-4.5-3.3-6c-1.5-1-5.4-2.3-11.5-3.8c-8.2-2.1-14-3.9-17.2-5.4c-3.2-1.5-5.6-3.6-7.2-6.3
				s-2.5-5.7-2.5-8.9c0-3,0.7-5.7,2-8.2c1.4-2.5,3.2-4.6,5.5-6.3c1.8-1.3,4.1-2.4,7.2-3.3c3-0.9,6.3-1.3,9.7-1.3
				c5.2,0,9.8,0.8,13.7,2.2s6.8,3.5,8.7,6.1s3.2,6,3.9,10.3l-11,1.5c-0.5-3.4-1.9-6.1-4.3-8c-2.4-1.9-5.8-2.9-10.2-2.9
				c-5.2,0-8.9,0.9-11.1,2.6c-2.2,1.7-3.3,3.7-3.3,6c0,1.5,0.5,2.8,1.4,3.9c0.9,1.2,2.4,2.2,4.3,3c1.1,0.4,4.4,1.4,9.9,2.9
				c8,2.1,13.5,3.9,16.7,5.2c3.1,1.4,5.6,3.3,7.4,5.9c1.8,2.6,2.7,5.8,2.7,9.6c0,3.8-1.1,7.3-3.3,10.6s-5.3,5.9-9.5,7.7
				s-8.8,2.7-14,2.7c-8.6,0-15.2-1.8-19.7-5.4C2344,1289.9,2341.1,1284.5,2339.8,1277.5z"/>
			<path class="st3" d="M2404.2,1264.1c0-12.3,3.4-21.4,10.2-27.3c5.7-4.9,12.7-7.4,20.9-7.4c9.1,0,16.6,3,22.4,9
				c5.8,6,8.7,14.2,8.7,24.8c0,8.5-1.3,15.3-3.8,20.2c-2.6,4.9-6.3,8.7-11.2,11.4s-10.2,4.1-16,4.1c-9.3,0-16.8-3-22.5-8.9
				C2407,1283.9,2404.2,1275.3,2404.2,1264.1z M2415.7,1264.1c0,8.5,1.9,14.9,5.6,19.1c3.7,4.2,8.4,6.3,14,6.3
				c5.6,0,10.2-2.1,13.9-6.4s5.6-10.7,5.6-19.4c0-8.2-1.9-14.4-5.6-18.7c-3.7-4.2-8.4-6.3-13.9-6.3c-5.6,0-10.3,2.1-14,6.3
				C2417.6,1249.3,2415.7,1255.6,2415.7,1264.1z"/>
			<path class="st3" d="M2482.2,1297.3v-57.6h-9.9v-8.8h9.9v-7.1c0-4.5,0.4-7.8,1.2-9.9c1.1-2.9,3-5.3,5.7-7.1s6.6-2.7,11.5-2.7
				c3.2,0,6.7,0.4,10.5,1.1l-1.7,9.8c-2.3-0.4-4.5-0.6-6.6-0.6c-3.4,0-5.8,0.7-7.2,2.2c-1.4,1.5-2.1,4.2-2.1,8.2v6.1h12.9v8.8h-12.9
				v57.6H2482.2z"/>
			<path class="st3" d="M2539.7,1287.2l1.6,9.9c-3.2,0.7-6,1-8.5,1c-4.1,0-7.2-0.6-9.5-1.9s-3.8-3-4.8-5.1
				c-0.9-2.1-1.4-6.5-1.4-13.3v-38.2h-8.2v-8.8h8.2v-16.4l11.2-6.8v23.2h11.3v8.8h-11.3v38.8c0,3.2,0.2,5.3,0.6,6.2
				c0.4,0.9,1,1.6,1.9,2.2c0.9,0.5,2.2,0.8,3.8,0.8C2536,1287.7,2537.6,1287.5,2539.7,1287.2z"/>
			<path class="st3" d="M2587.9,1297.3v-91.6h66.2v10.8H2600v28.1h50.7v10.8H2600v31.2h56.2v10.8H2587.9z"/>
			<path class="st3" d="M2664.1,1297.3l24.2-34.5l-22.4-31.9h14.1l10.2,15.6c1.9,3,3.5,5.4,4.6,7.4c1.8-2.8,3.5-5.2,5.1-7.3
				l11.2-15.7h13.4l-22.9,31.2l24.7,35.1h-13.8l-13.6-20.6l-3.6-5.6l-17.4,26.2H2664.1z"/>
			<path class="st3" d="M2778.9,1273l11.1,1.4c-1.2,7.6-4.3,13.6-9.3,17.9s-11.1,6.5-18.3,6.5c-9.1,0-16.4-3-21.9-8.9
				s-8.3-14.4-8.3-25.5c0-7.2,1.2-13.4,3.6-18.8s6-9.4,10.8-12.1s10.1-4,15.8-4c7.2,0,13.1,1.8,17.7,5.5c4.6,3.6,7.5,8.8,8.8,15.5
				l-10.9,1.7c-1-4.5-2.9-7.8-5.5-10.1s-5.8-3.4-9.6-3.4c-5.7,0-10.3,2-13.8,6.1s-5.3,10.5-5.3,19.3c0,8.9,1.7,15.4,5.1,19.4
				c3.4,4,7.9,6.1,13.4,6.1c4.4,0,8.1-1.4,11.1-4.1C2776.2,1282.8,2778.1,1278.6,2778.9,1273z"/>
			<path class="st3" d="M2845,1275.9l11.6,1.4c-1.8,6.8-5.2,12.1-10.2,15.8s-11.3,5.6-19,5.6c-9.7,0-17.4-3-23.1-9
				c-5.7-6-8.5-14.4-8.5-25.2c0-11.2,2.9-19.8,8.6-26c5.8-6.2,13.2-9.2,22.4-9.2c8.9,0,16.1,3,21.8,9.1c5.6,6,8.4,14.5,8.4,25.5
				c0,0.7,0,1.7-0.1,3h-49.5c0.4,7.3,2.5,12.9,6.2,16.8s8.3,5.8,13.9,5.8c4.1,0,7.6-1.1,10.6-3.2
				C2841,1284.1,2843.3,1280.7,2845,1275.9z M2808.1,1257.7h37.1c-0.5-5.6-1.9-9.8-4.2-12.6c-3.6-4.3-8.2-6.5-13.9-6.5
				c-5.2,0-9.5,1.7-13,5.2C2810.4,1247.3,2808.5,1252,2808.1,1257.7z"/>
			<path class="st3" d="M2870.5,1297.3v-91.6h11.2v91.6H2870.5z"/>
			<path class="st3" d="M1895.4,1417.7c0-12.3,3.4-21.4,10.2-27.3c5.7-4.9,12.7-7.4,20.9-7.4c9.1,0,16.6,3,22.4,9
				c5.8,6,8.7,14.2,8.7,24.8c0,8.5-1.3,15.3-3.8,20.2c-2.6,4.9-6.3,8.7-11.2,11.4c-4.9,2.7-10.2,4.1-16,4.1c-9.3,0-16.8-3-22.5-8.9
				C1898.3,1437.5,1895.4,1428.9,1895.4,1417.7z M1907,1417.7c0,8.5,1.9,14.9,5.6,19.1c3.7,4.2,8.4,6.3,14,6.3
				c5.6,0,10.2-2.1,13.9-6.4c3.7-4.2,5.6-10.7,5.6-19.4c0-8.2-1.9-14.4-5.6-18.7c-3.7-4.2-8.4-6.3-13.9-6.3c-5.6,0-10.3,2.1-14,6.3
				C1908.8,1402.9,1907,1409.2,1907,1417.7z"/>
			<path class="st3" d="M2050.7,1415v-10.8l38.8-0.1v34c-6,4.8-12.1,8.3-18.4,10.7c-6.3,2.4-12.8,3.6-19.5,3.6
				c-9,0-17.2-1.9-24.5-5.8c-7.4-3.9-12.9-9.4-16.7-16.7c-3.8-7.3-5.6-15.4-5.6-24.4c0-8.9,1.9-17.2,5.6-25
				c3.7-7.7,9.1-13.5,16.1-17.2s15.1-5.6,24.2-5.6c6.6,0,12.6,1.1,18,3.2c5.4,2.1,9.6,5.1,12.6,9c3,3.8,5.4,8.8,6.9,15l-10.9,3
				c-1.4-4.7-3.1-8.3-5.1-11c-2-2.7-5-4.8-8.8-6.4c-3.8-1.6-8-2.4-12.6-2.4c-5.5,0-10.3,0.8-14.4,2.5c-4,1.7-7.3,3.9-9.8,6.7
				c-2.5,2.8-4.4,5.8-5.8,9.1c-2.3,5.7-3.5,11.8-3.5,18.4c0,8.2,1.4,15,4.2,20.5s6.9,9.6,12.3,12.2c5.4,2.7,11.1,4,17.1,4
				c5.2,0,10.4-1,15.4-3c5-2,8.8-4.2,11.4-6.5V1415H2050.7z"/>
			<path class="st3" d="M2101.7,1417.7c0-12.3,3.4-21.4,10.2-27.3c5.7-4.9,12.7-7.4,20.9-7.4c9.1,0,16.6,3,22.4,9
				c5.8,6,8.7,14.2,8.7,24.8c0,8.5-1.3,15.3-3.8,20.2c-2.6,4.9-6.3,8.7-11.2,11.4c-4.9,2.7-10.2,4.1-16,4.1c-9.3,0-16.8-3-22.5-8.9
				C2104.6,1437.5,2101.7,1428.9,2101.7,1417.7z M2113.3,1417.7c0,8.5,1.9,14.9,5.6,19.1c3.7,4.2,8.4,6.3,14,6.3
				c5.6,0,10.2-2.1,13.9-6.4c3.7-4.2,5.6-10.7,5.6-19.4c0-8.2-1.9-14.4-5.6-18.7c-3.7-4.2-8.4-6.3-13.9-6.3c-5.6,0-10.3,2.1-14,6.3
				C2115.1,1402.9,2113.3,1409.2,2113.3,1417.7z"/>
			<path class="st3" d="M2172.9,1417.7c0-12.3,3.4-21.4,10.2-27.3c5.7-4.9,12.7-7.4,20.9-7.4c9.1,0,16.6,3,22.4,9
				c5.8,6,8.7,14.2,8.7,24.8c0,8.5-1.3,15.3-3.8,20.2c-2.6,4.9-6.3,8.7-11.2,11.4c-4.9,2.7-10.2,4.1-16,4.1c-9.3,0-16.8-3-22.5-8.9
				C2175.8,1437.5,2172.9,1428.9,2172.9,1417.7z M2184.5,1417.7c0,8.5,1.9,14.9,5.6,19.1c3.7,4.2,8.4,6.3,14,6.3
				c5.6,0,10.2-2.1,13.9-6.4c3.7-4.2,5.6-10.7,5.6-19.4c0-8.2-1.9-14.4-5.6-18.7c-3.7-4.2-8.4-6.3-13.9-6.3c-5.6,0-10.3,2.1-14,6.3
				C2186.3,1402.9,2184.5,1409.2,2184.5,1417.7z"/>
			<path class="st3" d="M2246.2,1456.4l10.9,1.6c0.5,3.4,1.7,5.8,3.8,7.4c2.8,2.1,6.6,3.1,11.4,3.1c5.2,0,9.2-1,12.1-3.1
				c2.8-2.1,4.8-5,5.8-8.8c0.6-2.3,0.9-7.1,0.8-14.4c-4.9,5.8-11,8.7-18.4,8.7c-9.1,0-16.2-3.3-21.2-9.9c-5-6.6-7.5-14.5-7.5-23.7
				c0-6.3,1.1-12.2,3.4-17.5c2.3-5.4,5.6-9.5,10-12.4c4.4-2.9,9.5-4.4,15.3-4.4c7.8,0,14.3,3.2,19.4,9.5v-8h10.4v57.4
				c0,10.3-1.1,17.7-3.2,22c-2.1,4.3-5.4,7.7-10,10.2s-10.2,3.8-16.8,3.8c-7.9,0-14.3-1.8-19.2-5.3S2246.1,1463.6,2246.2,1456.4z
				 M2255.5,1416.5c0,8.7,1.7,15.1,5.2,19.1c3.5,4,7.8,6,13,6c5.2,0,9.5-2,13-6c3.5-4,5.2-10.2,5.2-18.7c0-8.1-1.8-14.2-5.4-18.4
				c-3.6-4.1-7.9-6.2-13-6.2c-5,0-9.2,2-12.8,6.1S2255.5,1408.5,2255.5,1416.5z"/>
			<path class="st3" d="M2319.2,1450.9v-91.6h11.2v91.6H2319.2z"/>
			<path class="st3" d="M2393.3,1429.5l11.6,1.4c-1.8,6.8-5.2,12.1-10.2,15.8s-11.3,5.6-19,5.6c-9.7,0-17.4-3-23.1-9
				c-5.7-6-8.5-14.4-8.5-25.2c0-11.2,2.9-19.8,8.6-26c5.8-6.2,13.2-9.2,22.4-9.2c8.9,0,16.1,3,21.8,9.1c5.6,6,8.4,14.5,8.4,25.5
				c0,0.7,0,1.7-0.1,3h-49.5c0.4,7.3,2.5,12.9,6.2,16.8s8.3,5.8,13.9,5.8c4.1,0,7.6-1.1,10.6-3.2
				C2389.3,1437.7,2391.6,1434.3,2393.3,1429.5z M2356.4,1411.3h37.1c-0.5-5.6-1.9-9.8-4.2-12.6c-3.6-4.3-8.2-6.5-13.9-6.5
				c-5.2,0-9.5,1.7-13,5.2C2358.7,1400.9,2356.8,1405.6,2356.4,1411.3z"/>
			<path class="st3" d="M2452,1421.5l11.4-1c0.5,4.6,1.8,8.3,3.8,11.3s5.1,5.3,9.2,7.1s8.9,2.7,14.1,2.7c4.6,0,8.7-0.7,12.2-2.1
				s6.2-3.3,7.9-5.7c1.7-2.4,2.6-5,2.6-7.8c0-2.9-0.8-5.4-2.5-7.5c-1.7-2.1-4.4-3.9-8.2-5.4c-2.5-1-7.9-2.4-16.3-4.5
				c-8.4-2-14.3-3.9-17.7-5.7c-4.4-2.3-7.6-5.1-9.8-8.5c-2.1-3.4-3.2-7.2-3.2-11.4c0-4.6,1.3-8.9,3.9-13c2.6-4,6.5-7.1,11.5-9.2
				c5-2.1,10.6-3.1,16.8-3.1c6.8,0,12.8,1.1,18,3.3s9.2,5.4,12,9.7s4.3,9.1,4.5,14.4l-11.6,0.9c-0.6-5.8-2.7-10.2-6.3-13.1
				c-3.6-3-8.9-4.4-16-4.4c-7.3,0-12.7,1.3-16,4s-5,5.9-5,9.7c0,3.3,1.2,6,3.6,8.1c2.3,2.1,8.4,4.3,18.3,6.5
				c9.9,2.2,16.6,4.2,20.3,5.8c5.3,2.5,9.3,5.6,11.8,9.3c2.5,3.8,3.8,8.1,3.8,13c0,4.9-1.4,9.5-4.2,13.8s-6.8,7.7-12,10.1
				s-11.1,3.6-17.7,3.6c-8.3,0-15.2-1.2-20.8-3.6s-10-6.1-13.2-10.9C2453.8,1433.1,2452.1,1427.6,2452,1421.5z"/>
			<path class="st3" d="M2540,1450.9v-91.6h11.2v32.9c5.2-6.1,11.9-9.1,19.9-9.1c4.9,0,9.2,1,12.8,2.9s6.2,4.6,7.8,8
				c1.6,3.4,2.3,8.4,2.3,14.9v42.1h-11.2v-42.1c0-5.6-1.2-9.7-3.7-12.3s-5.9-3.8-10.3-3.8c-3.3,0-6.5,0.9-9.4,2.6
				c-2.9,1.7-5,4.1-6.3,7c-1.2,3-1.9,7-1.9,12.2v36.3H2540z"/>
			<path class="st3" d="M2656.7,1429.5l11.6,1.4c-1.8,6.8-5.2,12.1-10.2,15.8s-11.3,5.6-19,5.6c-9.7,0-17.4-3-23.1-9
				c-5.7-6-8.5-14.4-8.5-25.2c0-11.2,2.9-19.8,8.6-26c5.8-6.2,13.2-9.2,22.4-9.2c8.9,0,16.1,3,21.8,9.1c5.6,6,8.4,14.5,8.4,25.5
				c0,0.7,0,1.7-0.1,3h-49.5c0.4,7.3,2.5,12.9,6.2,16.8s8.3,5.8,13.9,5.8c4.1,0,7.6-1.1,10.6-3.2
				C2652.6,1437.7,2655,1434.3,2656.7,1429.5z M2619.7,1411.3h37.1c-0.5-5.6-1.9-9.8-4.2-12.6c-3.6-4.3-8.2-6.5-13.9-6.5
				c-5.2,0-9.5,1.7-13,5.2C2622,1400.9,2620.1,1405.6,2619.7,1411.3z"/>
			<path class="st3" d="M2727.8,1429.5l11.6,1.4c-1.8,6.8-5.2,12.1-10.2,15.8s-11.3,5.6-19,5.6c-9.7,0-17.4-3-23.1-9
				c-5.7-6-8.5-14.4-8.5-25.2c0-11.2,2.9-19.8,8.6-26c5.8-6.2,13.2-9.2,22.4-9.2c8.9,0,16.1,3,21.8,9.1c5.6,6,8.4,14.5,8.4,25.5
				c0,0.7,0,1.7-0.1,3h-49.5c0.4,7.3,2.5,12.9,6.2,16.8s8.3,5.8,13.9,5.8c4.1,0,7.6-1.1,10.6-3.2
				C2723.8,1437.7,2726.1,1434.3,2727.8,1429.5z M2690.9,1411.3h37.1c-0.5-5.6-1.9-9.8-4.2-12.6c-3.6-4.3-8.2-6.5-13.9-6.5
				c-5.2,0-9.5,1.7-13,5.2C2693.2,1400.9,2691.3,1405.6,2690.9,1411.3z"/>
			<path class="st3" d="M2778.2,1440.8l1.6,9.9c-3.2,0.7-6,1-8.5,1c-4.1,0-7.2-0.6-9.5-1.9s-3.8-3-4.8-5.1
				c-0.9-2.1-1.4-6.5-1.4-13.3v-38.2h-8.2v-8.8h8.2v-16.4l11.2-6.8v23.2h11.3v8.8h-11.3v38.8c0,3.2,0.2,5.3,0.6,6.2
				c0.4,0.9,1,1.6,1.9,2.2c0.9,0.5,2.2,0.8,3.8,0.8C2774.5,1441.3,2776.1,1441.1,2778.2,1440.8z"/>
		</g>
		<path class="st5" d="M3008.5,1028.3c0-57.9,46.9-104.8,104.8-104.8h1011.3c57.9,0,104.8,46.9,104.8,104.8v419.3
			c0,57.9-46.9,104.8-104.8,104.8H3113.3c-57.9,0-104.8-46.9-104.8-104.8V1028.3z"/>
		<g class="st2">
			<path class="st3" d="M3144.9,1123l36.6-95.2h13.6l39,95.2h-14.4l-11.1-28.8h-39.8l-10.5,28.8H3144.9z M3172.3,1083.9h32.3
				l-9.9-26.4c-3-8-5.3-14.6-6.8-19.7c-1.2,6.1-2.9,12.2-5.1,18.2L3172.3,1083.9z"/>
			<path class="st3" d="M3242.5,1123v-69h10.5v9.8c5.1-7.6,12.4-11.4,22-11.4c4.2,0,8,0.7,11.5,2.2c3.5,1.5,6.1,3.5,7.8,5.9
				s2.9,5.3,3.6,8.6c0.4,2.2,0.7,6,0.7,11.4v42.4h-11.7v-42c0-4.8-0.5-8.3-1.4-10.7c-0.9-2.4-2.5-4.2-4.8-5.7
				c-2.3-1.4-5-2.1-8.1-2.1c-5,0-9.3,1.6-12.9,4.7s-5.4,9.2-5.4,18v37.7H3242.5z M3250.8,1043.8c0-4.5,1.2-8.1,3.7-10.8
				c2.5-2.7,5.6-4,9.5-4c2.7,0,6.3,1.2,11,3.5c2.6,1.3,4.6,1.9,6.1,1.9c1.4,0,2.4-0.4,3.2-1.1c0.7-0.8,1.3-2.3,1.6-4.5h8.4
				c-0.1,4.9-1.4,8.6-3.7,11.1c-2.4,2.5-5.4,3.7-9,3.7c-2.7,0-6.3-1.2-10.8-3.6c-2.9-1.6-5-2.3-6.4-2.3c-1.5,0-2.7,0.5-3.6,1.6
				c-1,1-1.4,2.6-1.4,4.6H3250.8z"/>
			<path class="st3" d="M3361.5,1114.5c-4.3,3.7-8.5,6.3-12.5,7.8c-4,1.5-8.3,2.3-12.9,2.3c-7.6,0-13.4-1.9-17.5-5.6
				c-4.1-3.7-6.1-8.4-6.1-14.2c0-3.4,0.8-6.5,2.3-9.3c1.5-2.8,3.5-5,6-6.7c2.5-1.7,5.3-3,8.4-3.8c2.3-0.6,5.8-1.2,10.4-1.8
				c9.4-1.1,16.4-2.5,20.8-4c0-1.6,0.1-2.6,0.1-3.1c0-4.8-1.1-8.1-3.3-10.1c-3-2.6-7.4-4-13.3-4c-5.5,0-9.6,1-12.2,2.9
				c-2.6,1.9-4.6,5.3-5.8,10.2l-11.4-1.6c1-4.9,2.8-8.8,5.1-11.9c2.4-3,5.8-5.3,10.3-6.9c4.5-1.6,9.7-2.4,15.7-2.4
				c5.9,0,10.7,0.7,14.4,2.1c3.7,1.4,6.4,3.1,8.1,5.2c1.7,2.1,2.9,4.8,3.6,8c0.4,2,0.6,5.6,0.6,10.8v15.6c0,10.9,0.2,17.7,0.7,20.6
				c0.5,2.9,1.5,5.6,3,8.3h-12.2C3362.6,1120.6,3361.9,1117.7,3361.5,1114.5z M3360.5,1088.4c-4.2,1.7-10.6,3.2-19.1,4.4
				c-4.8,0.7-8.2,1.5-10.2,2.3s-3.5,2.1-4.6,3.8c-1.1,1.7-1.6,3.5-1.6,5.6c0,3.1,1.2,5.7,3.5,7.8c2.4,2.1,5.8,3.1,10.4,3.1
				c4.5,0,8.5-1,12-3c3.5-2,6.1-4.7,7.7-8.1c1.3-2.6,1.9-6.5,1.9-11.7V1088.4z"/>
			<path class="st3" d="M3435.2,1123v-8.7c-4.4,6.8-10.8,10.3-19.3,10.3c-5.5,0-10.6-1.5-15.2-4.5c-4.6-3-8.2-7.3-10.7-12.7
				c-2.5-5.4-3.8-11.7-3.8-18.7c0-6.9,1.1-13.1,3.4-18.7c2.3-5.6,5.7-9.9,10.3-12.9c4.6-3,9.7-4.5,15.4-4.5c4.2,0,7.9,0.9,11.1,2.6
				c3.2,1.8,5.9,4,7.9,6.9v-34.2h11.6v95.2H3435.2z M3398.3,1088.6c0,8.8,1.9,15.4,5.6,19.8c3.7,4.4,8.1,6.6,13.2,6.6
				c5.1,0,9.4-2.1,13-6.3c3.6-4.2,5.4-10.6,5.4-19.1c0-9.4-1.8-16.4-5.5-20.8c-3.6-4.4-8.1-6.6-13.4-6.6c-5.2,0-9.5,2.1-13,6.4
				C3400,1072.8,3398.3,1079.4,3398.3,1088.6z"/>
			<path class="st3" d="M3509.4,1114.5c-4.3,3.7-8.5,6.3-12.5,7.8c-4,1.5-8.3,2.3-12.9,2.3c-7.6,0-13.4-1.9-17.5-5.6
				c-4.1-3.7-6.1-8.4-6.1-14.2c0-3.4,0.8-6.5,2.3-9.3c1.5-2.8,3.5-5,6-6.7s5.3-3,8.4-3.8c2.3-0.6,5.8-1.2,10.4-1.8
				c9.4-1.1,16.4-2.5,20.8-4c0-1.6,0.1-2.6,0.1-3.1c0-4.8-1.1-8.1-3.3-10.1c-3-2.6-7.4-4-13.3-4c-5.5,0-9.6,1-12.2,2.9
				c-2.6,1.9-4.6,5.3-5.8,10.2l-11.4-1.6c1-4.9,2.8-8.8,5.1-11.9c2.4-3,5.8-5.3,10.3-6.9c4.5-1.6,9.7-2.4,15.7-2.4
				c5.9,0,10.7,0.7,14.4,2.1c3.7,1.4,6.4,3.1,8.1,5.2c1.7,2.1,2.9,4.8,3.6,8c0.4,2,0.6,5.6,0.6,10.8v15.6c0,10.9,0.2,17.7,0.7,20.6
				c0.5,2.9,1.5,5.6,3,8.3h-12.2C3510.6,1120.6,3509.8,1117.7,3509.4,1114.5z M3508.5,1088.4c-4.2,1.7-10.6,3.2-19.1,4.4
				c-4.8,0.7-8.2,1.5-10.2,2.3c-2,0.9-3.5,2.1-4.6,3.8c-1.1,1.7-1.6,3.5-1.6,5.6c0,3.1,1.2,5.7,3.5,7.8c2.4,2.1,5.8,3.1,10.4,3.1
				c4.5,0,8.5-1,12-3c3.5-2,6.1-4.7,7.7-8.1c1.3-2.6,1.9-6.5,1.9-11.7V1088.4z"/>
			<path class="st3" d="M3622.6,1100.8l12.1,1.5c-1.9,7.1-5.4,12.5-10.6,16.4s-11.7,5.8-19.7,5.8c-10.1,0-18.1-3.1-24-9.3
				c-5.9-6.2-8.9-14.9-8.9-26.1c0-11.6,3-20.6,9-27c6-6.4,13.7-9.6,23.2-9.6c9.2,0,16.8,3.1,22.6,9.4c5.8,6.3,8.8,15.1,8.8,26.5
				c0,0.7,0,1.7-0.1,3.1h-51.4c0.4,7.6,2.6,13.4,6.4,17.4c3.9,4,8.7,6,14.4,6c4.3,0,7.9-1.1,11-3.4
				C3618.4,1109.3,3620.8,1105.7,3622.6,1100.8z M3584.2,1081.9h38.5c-0.5-5.8-2-10.2-4.4-13.1c-3.7-4.5-8.6-6.8-14.5-6.8
				c-5.4,0-9.9,1.8-13.5,5.4C3586.6,1071.1,3584.6,1075.9,3584.2,1081.9z"/>
			<path class="st3" d="M3649.1,1123v-95.2h11.7v95.2H3649.1z"/>
			<path class="st3" d="M3726.6,1123h-10.8v-95.2h11.7v34c4.9-6.2,11.2-9.3,18.9-9.3c4.2,0,8.3,0.9,12,2.6c3.8,1.7,6.9,4.1,9.4,7.2
				c2.4,3.1,4.4,6.8,5.7,11.2c1.4,4.4,2.1,9,2.1,14c0,11.8-2.9,21-8.8,27.4c-5.8,6.5-12.9,9.7-21,9.7c-8.1,0-14.5-3.4-19.2-10.2
				V1123z M3726.5,1088c0,8.3,1.1,14.2,3.4,17.9c3.7,6,8.7,9,14.9,9c5.1,0,9.5-2.2,13.2-6.7c3.7-4.4,5.6-11.1,5.6-19.8
				c0-9-1.8-15.7-5.4-19.9c-3.6-4.3-7.9-6.4-13-6.4c-5.1,0-9.5,2.2-13.2,6.7C3728.3,1073.2,3726.5,1079.6,3726.5,1088z"/>
			<path class="st3" d="M3789.5,1123v-95.2h11.7v95.2H3789.5z"/>
			<path class="st3" d="M3815,1088.5c0-12.8,3.6-22.2,10.7-28.4c5.9-5.1,13.2-7.7,21.7-7.7c9.5,0,17.2,3.1,23.2,9.3
				c6,6.2,9,14.8,9,25.7c0,8.9-1.3,15.9-4,20.9c-2.7,5.1-6.5,9-11.6,11.9c-5.1,2.8-10.6,4.2-16.7,4.2c-9.7,0-17.5-3.1-23.4-9.3
				C3818,1109.1,3815,1100.2,3815,1088.5z M3827,1088.5c0,8.8,1.9,15.4,5.8,19.8c3.9,4.4,8.7,6.6,14.5,6.6c5.8,0,10.6-2.2,14.5-6.6
				s5.8-11.1,5.8-20.2c0-8.5-1.9-15-5.8-19.4c-3.9-4.4-8.7-6.6-14.4-6.6c-5.8,0-10.7,2.2-14.5,6.6
				C3828.9,1073.1,3827,1079.7,3827,1088.5z"/>
			<path class="st3" d="M3937.3,1149.4v-33.8c-1.8,2.6-4.4,4.7-7.6,6.4c-3.3,1.7-6.7,2.5-10.4,2.5c-8.2,0-15.2-3.3-21.1-9.8
				c-5.9-6.5-8.9-15.5-8.9-26.9c0-6.9,1.2-13.1,3.6-18.6c2.4-5.5,5.9-9.7,10.5-12.5c4.6-2.8,9.6-4.3,15-4.3
				c8.5,0,15.2,3.6,20.1,10.8v-9.2h10.5v95.4H3937.3z M3901.2,1088.3c0,8.9,1.9,15.5,5.6,20c3.7,4.4,8.2,6.7,13.4,6.7
				c5,0,9.3-2.1,12.9-6.3c3.6-4.2,5.4-10.6,5.4-19.3c0-9.2-1.9-16.1-5.7-20.7s-8.2-6.9-13.3-6.9c-5.1,0-9.4,2.2-12.9,6.5
				C3903,1072.5,3901.2,1079.2,3901.2,1088.3z"/>
			<path class="st3" d="M4012.5,1123v-10.1c-5.4,7.8-12.7,11.7-21.9,11.7c-4.1,0-7.9-0.8-11.4-2.3s-6.1-3.5-7.9-5.9
				c-1.7-2.4-2.9-5.2-3.6-8.7c-0.5-2.3-0.7-5.9-0.7-10.9V1054h11.7v38.3c0,6.1,0.2,10.2,0.7,12.3c0.7,3.1,2.3,5.5,4.7,7.2
				c2.4,1.8,5.3,2.6,8.8,2.6c3.5,0,6.8-0.9,9.9-2.7c3.1-1.8,5.2-4.2,6.5-7.3c1.3-3.1,1.9-7.6,1.9-13.5v-37h11.7v69H4012.5z"/>
			<path class="st3" d="M4088.5,1100.8l12.1,1.5c-1.9,7.1-5.4,12.5-10.6,16.4s-11.7,5.8-19.7,5.8c-10.1,0-18.1-3.1-24-9.3
				c-5.9-6.2-8.9-14.9-8.9-26.1c0-11.6,3-20.6,9-27c6-6.4,13.7-9.6,23.2-9.6c9.2,0,16.8,3.1,22.6,9.4c5.8,6.3,8.8,15.1,8.8,26.5
				c0,0.7,0,1.7-0.1,3.1h-51.4c0.4,7.6,2.6,13.4,6.4,17.4c3.9,4,8.7,6,14.4,6c4.3,0,7.9-1.1,11-3.4
				C4084.3,1109.3,4086.7,1105.7,4088.5,1100.8z M4050.1,1081.9h38.5c-0.5-5.8-2-10.2-4.4-13.1c-3.7-4.5-8.6-6.8-14.5-6.8
				c-5.4,0-9.9,1.8-13.5,5.4C4052.5,1071.1,4050.5,1075.9,4050.1,1081.9z"/>
			<path class="st3" d="M3174.7,1282.6v-95.2h64.2v11.2h-51.6v29.5h44.7v11.2h-44.7v43.3H3174.7z"/>
			<path class="st3" d="M3249.5,1248.1c0-12.8,3.5-22.2,10.7-28.4c5.9-5.1,13.2-7.7,21.7-7.7c9.5,0,17.2,3.1,23.2,9.3
				c6,6.2,9,14.8,9,25.7c0,8.9-1.3,15.9-4,20.9c-2.7,5.1-6.5,9-11.6,11.9c-5.1,2.8-10.6,4.2-16.7,4.2c-9.7,0-17.5-3.1-23.4-9.3
				C3252.4,1268.7,3249.5,1259.8,3249.5,1248.1z M3261.5,1248.1c0,8.8,1.9,15.4,5.8,19.8c3.9,4.4,8.7,6.6,14.5,6.6
				c5.8,0,10.6-2.2,14.5-6.6s5.8-11.1,5.8-20.2c0-8.5-1.9-15-5.8-19.4c-3.9-4.4-8.7-6.6-14.4-6.6c-5.8,0-10.7,2.2-14.5,6.6
				C3263.4,1232.7,3261.5,1239.3,3261.5,1248.1z"/>
			<path class="st3" d="M3327.6,1282.6v-69h10.5v10.5c2.7-4.9,5.2-8.1,7.4-9.7c2.3-1.6,4.8-2.3,7.5-2.3c3.9,0,7.9,1.3,12,3.8
				l-4,10.8c-2.9-1.7-5.7-2.5-8.6-2.5c-2.6,0-4.8,0.8-6.9,2.3c-2,1.5-3.5,3.7-4.4,6.4c-1.3,4.2-1.9,8.7-1.9,13.6v36.1H3327.6z"/>
			<path class="st3" d="M3372.1,1282.6v-69h10.5v9.7c2.2-3.4,5-6.1,8.6-8.2c3.6-2.1,7.7-3.1,12.3-3.1c5.1,0,9.3,1.1,12.6,3.2
				c3.3,2.1,5.6,5.1,6.9,8.9c5.5-8.1,12.6-12.1,21.3-12.1c6.8,0,12.1,1.9,15.8,5.7c3.7,3.8,5.5,9.6,5.5,17.5v47.3h-11.6v-43.4
				c0-4.7-0.4-8-1.1-10.1c-0.8-2.1-2.1-3.7-4.1-5c-2-1.3-4.3-1.9-7-1.9c-4.8,0-8.9,1.6-12.1,4.8c-3.2,3.2-4.8,8.4-4.8,15.5v40.1
				H3413v-44.8c0-5.2-1-9.1-2.9-11.7c-1.9-2.6-5-3.9-9.4-3.9c-3.3,0-6.3,0.9-9.1,2.6c-2.8,1.7-4.8,4.3-6.1,7.6s-1.9,8.1-1.9,14.4
				v35.8H3372.1z"/>
			<path class="st3" d="M3528.1,1282.6v-10.1c-5.4,7.8-12.7,11.7-21.9,11.7c-4.1,0-7.9-0.8-11.4-2.3c-3.5-1.6-6.1-3.5-7.9-5.9
				c-1.7-2.4-2.9-5.2-3.6-8.7c-0.5-2.3-0.7-5.9-0.7-10.9v-42.7h11.7v38.3c0,6.1,0.2,10.2,0.7,12.3c0.7,3.1,2.3,5.5,4.7,7.2
				c2.4,1.8,5.3,2.6,8.8,2.6c3.5,0,6.8-0.9,9.9-2.7c3.1-1.8,5.2-4.2,6.5-7.3c1.3-3.1,1.9-7.6,1.9-13.5v-37h11.7v69H3528.1z"/>
			<path class="st3" d="M3556.6,1282.6v-95.2h11.7v95.2H3556.6z"/>
			<path class="st3" d="M3631.4,1274.1c-4.3,3.7-8.5,6.3-12.5,7.8c-4,1.5-8.3,2.3-12.9,2.3c-7.6,0-13.4-1.9-17.5-5.6
				c-4.1-3.7-6.1-8.4-6.1-14.2c0-3.4,0.8-6.5,2.3-9.3c1.5-2.8,3.5-5,6-6.7s5.3-3,8.4-3.8c2.3-0.6,5.8-1.2,10.4-1.8
				c9.4-1.1,16.4-2.5,20.8-4c0-1.6,0.1-2.6,0.1-3.1c0-4.8-1.1-8.1-3.3-10.1c-3-2.6-7.4-4-13.3-4c-5.5,0-9.6,1-12.2,2.9
				c-2.6,1.9-4.6,5.3-5.8,10.2l-11.4-1.6c1-4.9,2.8-8.8,5.1-11.9c2.4-3,5.8-5.3,10.3-6.9c4.5-1.6,9.7-2.4,15.7-2.4
				c5.9,0,10.7,0.7,14.4,2.1c3.7,1.4,6.4,3.1,8.1,5.2c1.7,2.1,2.9,4.8,3.6,8c0.4,2,0.6,5.6,0.6,10.8v15.6c0,10.9,0.2,17.7,0.7,20.6
				c0.5,2.9,1.5,5.6,3,8.3h-12.2C3632.5,1280.2,3631.7,1277.3,3631.4,1274.1z M3630.4,1248c-4.2,1.7-10.6,3.2-19.1,4.4
				c-4.8,0.7-8.2,1.5-10.2,2.3c-2,0.9-3.5,2.1-4.6,3.8c-1.1,1.7-1.6,3.5-1.6,5.6c0,3.1,1.2,5.7,3.5,7.8c2.4,2.1,5.8,3.1,10.4,3.1
				c4.5,0,8.5-1,12-3c3.5-2,6.1-4.7,7.7-8.1c1.3-2.6,1.9-6.5,1.9-11.7V1248z"/>
			<path class="st3" d="M3660.2,1282.6v-69h10.5v10.5c2.7-4.9,5.2-8.1,7.4-9.7s4.8-2.3,7.5-2.3c3.9,0,7.9,1.3,12,3.8l-4,10.8
				c-2.9-1.7-5.7-2.5-8.6-2.5c-2.6,0-4.8,0.8-6.9,2.3c-2,1.5-3.5,3.7-4.4,6.4c-1.3,4.2-1.9,8.7-1.9,13.6v36.1H3660.2z"/>
			<path class="st3" d="M3704.7,1200.8v-13.4h11.7v13.4H3704.7z M3704.7,1282.6v-69h11.7v69H3704.7z"/>
			<path class="st3" d="M3729.8,1248.1c0-12.8,3.6-22.2,10.7-28.4c5.9-5.1,13.2-7.7,21.7-7.7c9.5,0,17.2,3.1,23.2,9.3
				c6,6.2,9,14.8,9,25.7c0,8.9-1.3,15.9-4,20.9c-2.7,5.1-6.5,9-11.6,11.9c-5.1,2.8-10.6,4.2-16.7,4.2c-9.7,0-17.5-3.1-23.4-9.3
				C3732.8,1268.7,3729.8,1259.8,3729.8,1248.1z M3741.8,1248.1c0,8.8,1.9,15.4,5.8,19.8c3.9,4.4,8.7,6.6,14.5,6.6
				c5.8,0,10.6-2.2,14.5-6.6s5.8-11.1,5.8-20.2c0-8.5-1.9-15-5.8-19.4c-3.9-4.4-8.7-6.6-14.4-6.6c-5.8,0-10.7,2.2-14.5,6.6
				C3743.8,1232.7,3741.8,1239.3,3741.8,1248.1z"/>
			<path class="st3" d="M3890.1,1274.1c-4.3,3.7-8.5,6.3-12.5,7.8c-4,1.5-8.3,2.3-12.9,2.3c-7.6,0-13.4-1.9-17.5-5.6
				c-4.1-3.7-6.1-8.4-6.1-14.2c0-3.4,0.8-6.5,2.3-9.3c1.5-2.8,3.5-5,6-6.7s5.3-3,8.4-3.8c2.3-0.6,5.8-1.2,10.4-1.8
				c9.4-1.1,16.4-2.5,20.8-4c0-1.6,0.1-2.6,0.1-3.1c0-4.8-1.1-8.1-3.3-10.1c-3-2.6-7.4-4-13.3-4c-5.5,0-9.6,1-12.2,2.9
				c-2.6,1.9-4.6,5.3-5.8,10.2l-11.4-1.6c1-4.9,2.8-8.8,5.1-11.9c2.4-3,5.8-5.3,10.3-6.9c4.5-1.6,9.7-2.4,15.7-2.4
				c5.9,0,10.7,0.7,14.4,2.1c3.7,1.4,6.4,3.1,8.1,5.2c1.7,2.1,2.9,4.8,3.6,8c0.4,2,0.6,5.6,0.6,10.8v15.6c0,10.9,0.2,17.7,0.7,20.6
				c0.5,2.9,1.5,5.6,3,8.3h-12.2C3891.2,1280.2,3890.4,1277.3,3890.1,1274.1z M3889.1,1248c-4.2,1.7-10.6,3.2-19.1,4.4
				c-4.8,0.7-8.2,1.5-10.2,2.3c-2,0.9-3.5,2.1-4.6,3.8c-1.1,1.7-1.6,3.5-1.6,5.6c0,3.1,1.2,5.7,3.5,7.8c2.4,2.1,5.8,3.1,10.4,3.1
				c4.5,0,8.5-1,12-3c3.5-2,6.1-4.7,7.7-8.1c1.3-2.6,1.9-6.5,1.9-11.7V1248z"/>
			<path class="st3" d="M3951.3,1262l11.6-1.8c0.7,4.6,2.5,8.2,5.4,10.7c3,2.5,7.1,3.7,12.4,3.7c5.4,0,9.4-1.1,11.9-3.3
				c2.6-2.2,3.9-4.8,3.9-7.7c0-2.6-1.1-4.7-3.4-6.2c-1.6-1-5.6-2.4-11.9-4c-8.6-2.2-14.5-4-17.8-5.6c-3.3-1.6-5.8-3.8-7.5-6.6
				c-1.7-2.8-2.6-5.9-2.6-9.3c0-3.1,0.7-5.9,2.1-8.5c1.4-2.6,3.3-4.8,5.7-6.5c1.8-1.3,4.3-2.5,7.4-3.4c3.1-0.9,6.5-1.4,10.1-1.4
				c5.4,0,10.2,0.8,14.3,2.3c4.1,1.6,7.1,3.7,9.1,6.3c1.9,2.7,3.3,6.2,4,10.7l-11.4,1.6c-0.5-3.5-2-6.3-4.5-8.3c-2.5-2-6-3-10.6-3
				c-5.4,0-9.2,0.9-11.5,2.7s-3.4,3.9-3.4,6.2c0,1.5,0.5,2.9,1.4,4.1c1,1.3,2.4,2.3,4.5,3.1c1.2,0.4,4.6,1.4,10.3,3
				c8.3,2.2,14,4,17.3,5.4c3.3,1.4,5.8,3.5,7.7,6.1c1.9,2.7,2.8,6,2.8,10c0,3.9-1.1,7.6-3.4,11c-2.3,3.4-5.6,6.1-9.8,8
				c-4.3,1.9-9.1,2.8-14.5,2.8c-9,0-15.8-1.9-20.5-5.6C3955.6,1274.9,3952.6,1269.3,3951.3,1262z"/>
			<path class="st3" d="M4067.7,1282.6v-10.1c-5.4,7.8-12.7,11.7-21.9,11.7c-4.1,0-7.9-0.8-11.4-2.3s-6.1-3.5-7.9-5.9
				c-1.7-2.4-2.9-5.2-3.6-8.7c-0.5-2.3-0.7-5.9-0.7-10.9v-42.7h11.7v38.3c0,6.1,0.2,10.2,0.7,12.3c0.7,3.1,2.3,5.5,4.7,7.2
				c2.4,1.8,5.3,2.6,8.8,2.6c3.5,0,6.8-0.9,9.9-2.7c3.1-1.8,5.2-4.2,6.5-7.3c1.3-3.1,1.9-7.6,1.9-13.5v-37h11.7v69H4067.7z"/>
			<path class="st3" d="M3224.3,1468.6v-95.4h10.7v9c2.5-3.5,5.3-6.1,8.5-7.9c3.2-1.8,7-2.6,11.5-2.6c5.9,0,11.1,1.5,15.6,4.5
				c4.5,3,7.9,7.3,10.2,12.8c2.3,5.5,3.4,11.6,3.4,18.2c0,7.1-1.3,13.4-3.8,19.1c-2.5,5.7-6.2,10-11,13c-4.8,3-9.9,4.5-15.2,4.5
				c-3.9,0-7.4-0.8-10.5-2.5c-3.1-1.6-5.6-3.7-7.6-6.2v33.6H3224.3z M3234.8,1408.1c0,8.9,1.8,15.4,5.4,19.7
				c3.6,4.2,7.9,6.4,13.1,6.4c5.2,0,9.6-2.2,13.3-6.6c3.7-4.4,5.6-11.2,5.6-20.4c0-8.8-1.8-15.4-5.4-19.7c-3.6-4.4-7.9-6.6-13-6.6
				c-5,0-9.4,2.3-13.2,7C3236.8,1392.5,3234.8,1399.2,3234.8,1408.1z"/>
			<path class="st3" d="M3298.1,1442.2v-69h10.5v10.5c2.7-4.9,5.2-8.1,7.4-9.7c2.3-1.6,4.8-2.3,7.5-2.3c3.9,0,7.9,1.3,12,3.8
				l-4,10.8c-2.9-1.7-5.7-2.5-8.6-2.5c-2.6,0-4.8,0.8-6.9,2.3c-2,1.5-3.5,3.7-4.4,6.4c-1.3,4.2-1.9,8.7-1.9,13.6v36.1H3298.1z"/>
			<path class="st3" d="M3338.2,1407.7c0-12.8,3.5-22.2,10.7-28.4c5.9-5.1,13.2-7.7,21.7-7.7c9.5,0,17.2,3.1,23.2,9.3
				c6,6.2,9,14.8,9,25.7c0,8.9-1.3,15.9-4,20.9c-2.7,5.1-6.5,9-11.6,11.9c-5.1,2.8-10.6,4.2-16.7,4.2c-9.7,0-17.5-3.1-23.4-9.3
				C3341.1,1428.3,3338.2,1419.4,3338.2,1407.7z M3350.2,1407.7c0,8.8,1.9,15.4,5.8,19.8c3.9,4.4,8.7,6.6,14.5,6.6
				c5.8,0,10.6-2.2,14.5-6.6c3.9-4.4,5.8-11.1,5.8-20.2c0-8.5-1.9-15-5.8-19.4c-3.9-4.4-8.7-6.6-14.4-6.6c-5.8,0-10.7,2.2-14.5,6.6
				C3352.1,1392.3,3350.2,1398.9,3350.2,1407.7z"/>
			<path class="st3" d="M3416,1468.8l-1.3-11c2.6,0.7,4.8,1,6.7,1c2.6,0,4.7-0.4,6.2-1.3c1.6-0.9,2.8-2.1,3.8-3.6
				c0.7-1.2,1.9-4.1,3.6-8.7c0.2-0.6,0.6-1.6,1-2.9l-26.2-69.1h12.6l14.4,39.9c1.9,5.1,3.5,10.4,5,16c1.3-5.4,2.9-10.6,4.8-15.7
				l14.7-40.2h11.7l-26.2,70.1c-2.8,7.6-5,12.8-6.6,15.7c-2.1,3.9-4.5,6.7-7.1,8.5c-2.7,1.8-5.9,2.7-9.6,2.7
				C3421.2,1470.2,3418.7,1469.7,3416,1468.8z"/>
			<path class="st3" d="M3530.2,1420l12.1,1.5c-1.9,7.1-5.4,12.5-10.6,16.4s-11.7,5.8-19.7,5.8c-10.1,0-18.1-3.1-24-9.3
				c-5.9-6.2-8.9-14.9-8.9-26.1c0-11.6,3-20.6,9-27c6-6.4,13.7-9.6,23.2-9.6c9.2,0,16.8,3.1,22.6,9.4c5.8,6.3,8.8,15.1,8.8,26.5
				c0,0.7,0,1.7-0.1,3.1h-51.4c0.4,7.6,2.6,13.4,6.4,17.4c3.9,4,8.7,6,14.4,6c4.3,0,7.9-1.1,11-3.4
				C3526,1428.5,3528.4,1424.9,3530.2,1420z M3491.8,1401.1h38.5c-0.5-5.8-2-10.2-4.4-13.1c-3.7-4.5-8.6-6.8-14.5-6.8
				c-5.4,0-9.9,1.8-13.5,5.4C3494.2,1390.3,3492.2,1395.1,3491.8,1401.1z"/>
			<path class="st3" d="M3602,1416.9l11.5,1.5c-1.3,7.9-4.5,14.1-9.6,18.6c-5.2,4.5-11.5,6.7-19.1,6.7c-9.4,0-17-3.1-22.8-9.3
				c-5.7-6.2-8.6-15-8.6-26.5c0-7.4,1.2-14,3.7-19.5c2.5-5.6,6.2-9.8,11.3-12.6c5-2.8,10.5-4.2,16.5-4.2c7.5,0,13.6,1.9,18.4,5.7
				c4.8,3.8,7.8,9.2,9.2,16.1l-11.4,1.8c-1.1-4.6-3-8.1-5.7-10.5c-2.8-2.3-6.1-3.5-10-3.5c-5.9,0-10.7,2.1-14.4,6.3
				c-3.7,4.2-5.5,10.9-5.5,20c0,9.3,1.8,16,5.3,20.2c3.5,4.2,8.2,6.3,13.9,6.3c4.6,0,8.4-1.4,11.5-4.2
				C3599.2,1427.1,3601.1,1422.8,3602,1416.9z"/>
			<path class="st3" d="M3649,1431.7l1.7,10.3c-3.3,0.7-6.2,1-8.8,1c-4.2,0-7.5-0.7-9.9-2c-2.3-1.3-4-3.1-4.9-5.3
				c-1-2.2-1.4-6.8-1.4-13.8v-39.7h-8.6v-9.1h8.6v-17.1l11.6-7v24.1h11.8v9.1h-11.8v40.3c0,3.3,0.2,5.5,0.6,6.4c0.4,1,1.1,1.7,2,2.3
				c0.9,0.6,2.3,0.8,4,0.8C3645.1,1432.2,3646.9,1432,3649,1431.7z"/>
			<path class="st3" d="M3656.1,1407.7c0-12.8,3.6-22.2,10.7-28.4c5.9-5.1,13.2-7.7,21.7-7.7c9.5,0,17.2,3.1,23.2,9.3
				c6,6.2,9,14.8,9,25.7c0,8.9-1.3,15.9-4,20.9c-2.7,5.1-6.5,9-11.6,11.9c-5.1,2.8-10.6,4.2-16.7,4.2c-9.7,0-17.5-3.1-23.4-9.3
				C3659,1428.3,3656.1,1419.4,3656.1,1407.7z M3668.1,1407.7c0,8.8,1.9,15.4,5.8,19.8c3.9,4.4,8.7,6.6,14.5,6.6
				c5.8,0,10.6-2.2,14.5-6.6s5.8-11.1,5.8-20.2c0-8.5-1.9-15-5.8-19.4c-3.9-4.4-8.7-6.6-14.4-6.6c-5.8,0-10.7,2.2-14.5,6.6
				C3670,1392.3,3668.1,1398.9,3668.1,1407.7z"/>
			<path class="st3" d="M3773.1,1442.2V1347h68.8v11.2h-56.2v29.2h52.7v11.2h-52.7v32.4h58.4v11.2H3773.1z"/>
			<path class="st3" d="M3861.5,1442.2V1347h32.8c7.4,0,13.1,0.5,16.9,1.4c5.5,1.3,10.1,3.5,14,6.8c5,4.2,8.8,9.7,11.3,16.3
				c2.5,6.6,3.7,14.1,3.7,22.6c0,7.2-0.8,13.6-2.5,19.2c-1.7,5.6-3.9,10.2-6.5,13.9c-2.6,3.7-5.5,6.5-8.7,8.6
				c-3.1,2.1-6.9,3.7-11.4,4.8c-4.4,1.1-9.5,1.6-15.3,1.6H3861.5z M3874.1,1431h20.3c6.3,0,11.2-0.6,14.8-1.8
				c3.6-1.2,6.4-2.8,8.5-4.9c3-3,5.3-7,7-12c1.7-5,2.5-11.2,2.5-18.3c0-10-1.6-17.6-4.9-23c-3.3-5.3-7.2-8.9-11.9-10.7
				c-3.4-1.3-8.8-1.9-16.3-1.9h-20V1431z"/>
			<path class="st3" d="M3953.3,1411.6l11.9-1c0.6,4.8,1.9,8.7,3.9,11.7c2.1,3.1,5.2,5.5,9.6,7.4c4.3,1.9,9.2,2.8,14.6,2.8
				c4.8,0,9-0.7,12.7-2.1s6.4-3.4,8.2-5.9c1.8-2.5,2.7-5.2,2.7-8.2c0-3-0.9-5.6-2.6-7.8c-1.7-2.2-4.6-4.1-8.6-5.6
				c-2.6-1-8.2-2.5-16.9-4.6c-8.7-2.1-14.9-4.1-18.4-5.9c-4.5-2.4-7.9-5.3-10.2-8.9c-2.2-3.5-3.3-7.5-3.3-11.9
				c0-4.8,1.4-9.3,4.1-13.5c2.7-4.2,6.7-7.3,11.9-9.5s11.1-3.2,17.5-3.2c7.1,0,13.3,1.1,18.7,3.4c5.4,2.3,9.5,5.6,12.4,10
				s4.5,9.4,4.7,15l-12.1,0.9c-0.6-6-2.8-10.6-6.6-13.6c-3.7-3.1-9.3-4.6-16.6-4.6c-7.6,0-13.2,1.4-16.7,4.2
				c-3.5,2.8-5.2,6.2-5.2,10.1c0,3.4,1.2,6.2,3.7,8.4c2.4,2.2,8.8,4.5,19,6.8c10.2,2.3,17.3,4.3,21.1,6.1c5.5,2.6,9.6,5.8,12.3,9.7
				c2.6,3.9,4,8.4,4,13.5c0,5.1-1.5,9.8-4.4,14.3c-2.9,4.5-7.1,8-12.5,10.5c-5.4,2.5-11.6,3.7-18.3,3.7c-8.6,0-15.8-1.3-21.7-3.8
				c-5.8-2.5-10.4-6.3-13.7-11.3C3955.2,1423.7,3953.5,1418,3953.3,1411.6z"/>
		</g>
	</g>
</g>
</svg>
